<svg xmlns="http://www.w3.org/2000/svg" xmlns:cc="http://web.resource.org/cc/" xmlns:svg="http://www.w3.org/2000/svg" xmlns:xlink="http://www.w3.org/1999/xlink" id="svg5676" width="128" height="128" version="1.0"><defs id="defs5678"><linearGradient id="linearGradient4338" x1="5.193" x2="5.193" y1="88.987" y2="145.649" gradientTransform="translate(-2.6296821,21.172877)" gradientUnits="userSpaceOnUse" xlink:href="#linearGradient4322"/><linearGradient id="linearGradient8081" x1="28" x2="28" y1="57.5" y2="0" gradientUnits="userSpaceOnUse"><stop id="stop8083" offset="0" style="stop-color:gold;stop-opacity:1"/><stop style="stop-color:#ffea00;stop-opacity:1" id="stop8087" offset=".252"/><stop id="stop8085" offset="1" style="stop-color:#b06d00;stop-opacity:1"/></linearGradient><linearGradient id="linearGradient7698" x1="58.557" x2="63.943" y1="107.767" y2="107.767" gradientTransform="matrix(1.0872079,0,0,1.0872079,-59.143229,30.210796)" gradientUnits="userSpaceOnUse" xlink:href="#linearGradient8081"/><linearGradient id="linearGradient6924"><stop style="stop-color:#fff;stop-opacity:.73885351" id="stop6926" offset="0"/><stop id="stop10395" offset=".25" style="stop-color:#fff;stop-opacity:0"/><stop id="stop10393" offset=".5" style="stop-color:#ccc;stop-opacity:0"/><stop style="stop-color:#9a9a9a;stop-opacity:1" id="stop6928" offset="1"/></linearGradient><linearGradient id="linearGradient6930" x1="8.383" x2="15.022" y1="8.32" y2="14.959" gradientTransform="matrix(1.2050468,0,0,1.2050468,-2.1016162,-2.0259658)" gradientUnits="userSpaceOnUse" xlink:href="#linearGradient6924"/><linearGradient id="linearGradient4529"><stop style="stop-color:#fff;stop-opacity:1" id="stop4531" offset="0"/><stop style="stop-color:#fff;stop-opacity:0" id="stop4533" offset="1"/></linearGradient><linearGradient id="linearGradient4640" x1="9.303" x2="-5.854" y1="133.252" y2="130.593" gradientUnits="userSpaceOnUse" xlink:href="#linearGradient4529"/><filter id="filter4626" width="1.207" height="1.207" x="-.103" y="-.103"><feGaussianBlur id="feGaussianBlur4628" stdDeviation=".425"/></filter><linearGradient id="linearGradient4604" x1="9.303" x2="-5.854" y1="133.252" y2="130.593" gradientUnits="userSpaceOnUse" xlink:href="#linearGradient4529"/><clipPath id="clipPath4632" clipPathUnits="userSpaceOnUse"><rect style="opacity:.83895126;fill:url(#linearGradient4604);fill-opacity:1;stroke:none;stroke-width:.37;stroke-linecap:round;stroke-linejoin:round;stroke-miterlimit:4;stroke-dasharray:none;stroke-dashoffset:1.08779998;stroke-opacity:1;filter:url(#filter4626)" id="rect4634" width="13.334" height="3.742" x="-2.926" y="130.973" rx="0" ry="0"/></clipPath><radialGradient id="radialGradient4602" cx="4.749" cy="132.252" r="5.322" fx="4.749" fy="132.252" gradientTransform="matrix(1,0,0,0.3939752,0.4817163,48.449986)" gradientUnits="userSpaceOnUse" xlink:href="#linearGradient4434"/><filter id="filter4584"><feGaussianBlur id="feGaussianBlur4586" stdDeviation="1.083"/></filter><clipPath id="clipPath4588" clipPathUnits="userSpaceOnUse"><path id="path4590" d="M 13.037731,82.09273 L 18.342123,87.397123 C 21.331352,87.817882 24.407038,89.18508 26.895219,91.673261 C 29.411177,94.189215 30.893289,97.328601 31.294715,100.34972 L 56.289372,125.34436 C 62.090282,131.14528 77.301422,116.01036 71.462392,110.17133 L 46.467742,85.176682 C 43.446635,84.775254 40.307258,83.29314 37.791293,80.777186 C 35.303111,78.289007 33.935917,75.213314 33.515156,72.22409 L 28.210762,66.919697 L 13.037731,82.09273 z" style="opacity:1;fill:url(#linearGradient4529);fill-opacity:1;stroke:none;stroke-width:.37;stroke-linecap:round;stroke-linejoin:round;stroke-miterlimit:4;stroke-dasharray:none;stroke-dashoffset:1.08779998;stroke-opacity:1"/></clipPath><filter id="filter4551"><feGaussianBlur id="feGaussianBlur4553" stdDeviation=".155"/></filter><linearGradient id="linearGradient4537" x1="9.303" x2="-5.854" y1="133.252" y2="130.593" gradientUnits="userSpaceOnUse" xlink:href="#linearGradient4529"/><linearGradient id="linearGradient4525" x1="58.557" x2="63.943" y1="107.767" y2="107.767" gradientTransform="matrix(1.0872079,0,0,1.0872079,-71.164046,29.503688)" gradientUnits="userSpaceOnUse" xlink:href="#linearGradient2575"/><linearGradient id="linearGradient4509"><stop style="stop-color:#ffe900;stop-opacity:1" id="stop4511" offset="0"/><stop style="stop-color:#ffe900;stop-opacity:0" id="stop4513" offset="1"/></linearGradient><linearGradient id="linearGradient4515" x1="75.586" x2="89.453" y1="85.084" y2="79.224" gradientUnits="userSpaceOnUse" xlink:href="#linearGradient4509"/><filter id="filter4501"><feGaussianBlur id="feGaussianBlur4503" stdDeviation=".487"/></filter><linearGradient id="linearGradient4465"><stop style="stop-color:#ffa300;stop-opacity:1" id="stop4467" offset="0"/><stop style="stop-color:#ffa300;stop-opacity:0" id="stop4469" offset="1"/></linearGradient><linearGradient id="linearGradient4471" x1="83.887" x2="86.301" y1="77.662" y2="86.671" gradientTransform="translate(-4,-4)" gradientUnits="userSpaceOnUse" xlink:href="#linearGradient4465"/><linearGradient id="linearGradient4434"><stop style="stop-color:#fff;stop-opacity:1" id="stop4436" offset="0"/><stop style="stop-color:#fff;stop-opacity:0" id="stop4438" offset="1"/></linearGradient><radialGradient id="radialGradient4440" cx="4.749" cy="132.252" r="5.322" fx="4.749" fy="132.252" gradientTransform="matrix(1,0,0,0.3939752,-7.0710881e-2,74.137847)" gradientUnits="userSpaceOnUse" xlink:href="#linearGradient4434"/><filter id="filter4404"><feGaussianBlur id="feGaussianBlur4406" stdDeviation=".152"/></filter><linearGradient id="linearGradient4342" x1="3.545" x2="3.191" y1="107.64" y2="104.649" gradientTransform="translate(1.6836694,24.213436)" gradientUnits="userSpaceOnUse" xlink:href="#linearGradient4322"/><linearGradient id="linearGradient4322"><stop style="stop-color:#fff;stop-opacity:1" id="stop4324" offset="0"/><stop style="stop-color:#fff;stop-opacity:0" id="stop4326" offset="1"/></linearGradient><linearGradient id="linearGradient4346" x1="5.193" x2="5.135" y1="103.954" y2="115.656" gradientTransform="matrix(0.7071068,-0.7071068,0.7071068,0.7071068,-2.6879854,-4.0690534)" gradientUnits="userSpaceOnUse" xlink:href="#linearGradient4322"/><filter id="filter4238" width="1.15" height="1.225" x="-.075" y="-.112"><feGaussianBlur id="feGaussianBlur4240" stdDeviation="1.124"/></filter><clipPath id="clipPath4242" clipPathUnits="userSpaceOnUse"><path id="path4244" d="M -4,77.788157 L -4,83.381653 C -2.645772,85.179573 -1.744968,87.522089 -1.744968,90.145881 C -1.744968,92.798965 -2.618764,95.23565 -4,97.040192 L -4,123.39712 C -4,129.51419 12,129.55437 12,123.39712 L 12,97.040192 C 10.618764,95.23565 9.744972,92.798965 9.744968,90.145881 C 9.744968,87.522089 10.645776,85.179573 12,83.381653 L 12,77.788157 L -4,77.788157 z" style="opacity:1;fill:url(#linearGradient4338);fill-opacity:1;stroke:none;stroke-width:.37;stroke-linecap:round;stroke-linejoin:round;stroke-miterlimit:4;stroke-dasharray:none;stroke-dashoffset:1.08779998;stroke-opacity:1"/></clipPath><linearGradient id="linearGradient2575" x1="28" x2="28" y1="57.5" y2="0" gradientUnits="userSpaceOnUse"><stop style="stop-color:#ffea00" id="stop2577" offset="0"/><stop style="stop-color:#cd8000;stop-opacity:1" id="stop2579" offset="1"/></linearGradient><linearGradient id="linearGradient4190" x1="36" x2="28" y1="100" y2="100" gradientTransform="matrix(0.9483145,-0.9483145,0.9483145,0.9483145,-36.790528,30.877897)" gradientUnits="userSpaceOnUse" spreadMethod="reflect" xlink:href="#linearGradient2575"/><linearGradient id="linearGradient6511"><stop style="stop-color:#fff;stop-opacity:1" id="stop6513" offset="0"/><stop style="stop-color:#393939;stop-opacity:1" id="stop6515" offset="1"/></linearGradient><linearGradient id="linearGradient6517" x1="38.074" x2="38.074" y1="4.27" y2="-10.423" gradientUnits="userSpaceOnUse" xlink:href="#linearGradient6511"/><linearGradient id="linearGradient3916"><stop style="stop-color:#d3d6d6;stop-opacity:1" id="stop3918" offset="0"/><stop style="stop-color:#f7f7f7;stop-opacity:1" id="stop3921" offset="1"/></linearGradient><linearGradient id="linearGradient3943" x1="34.165" x2="34.165" y1="4.863" y2="-14.006" gradientUnits="userSpaceOnUse" xlink:href="#linearGradient3916"/><linearGradient id="linearGradient6112" x1="38.828" x2="36.46" y1="104.492" y2="17.51" gradientTransform="matrix(1.1550511,0,0,1.1550511,-41.26484,21.101778)" gradientUnits="userSpaceOnUse" xlink:href="#linearGradient3904"/><filter id="filter3838" width="1.524" height="1.151" x="-.262" y="-.076"><feGaussianBlur id="feGaussianBlur3840" stdDeviation=".419"/></filter><filter id="filter3834" width="1.524" height="1.151" x="-.262" y="-.076"><feGaussianBlur id="feGaussianBlur3836" stdDeviation=".419"/></filter><clipPath id="clipPath3850" clipPathUnits="userSpaceOnUse"><path id="path3852" d="M 5.6835937,-4 C 6.7672977,-0.13901249 7.6835937,4 7.6835937,8 C 7.6835937,25.92781 15.683594,26.507796 15.683594,8 C 15.683594,4 16.274299,-0.44557713 17.683594,-4 C 16.034701,-11.286281 10.22872,-24.562662 5.6835937,-4 z" style="opacity:1;fill:#b4b4b4;fill-opacity:1;stroke:none;stroke-width:.47008219;stroke-linecap:round;stroke-linejoin:round;stroke-miterlimit:4;stroke-dasharray:none;stroke-dashoffset:1.08779998;stroke-opacity:1"/></clipPath><linearGradient id="linearGradient3904"><stop style="stop-color:#141515;stop-opacity:1" id="stop3906" offset="0"/><stop style="stop-color:#535557;stop-opacity:0" id="stop3908" offset="1"/></linearGradient><linearGradient id="linearGradient6119" x1="36.46" x2="39.504" y1="108.283" y2="69.417" gradientTransform="matrix(1.1550511,0,0,1.1550511,-40.633471,-152.2263)" gradientUnits="userSpaceOnUse" xlink:href="#linearGradient3904"/><linearGradient id="linearGradient3220"><stop style="stop-color:#fff;stop-opacity:1" id="stop3222" offset="0"/><stop style="stop-color:#fff;stop-opacity:0" id="stop3224" offset="1"/></linearGradient><linearGradient id="linearGradient6122" x1="36.46" x2="36.46" y1="89.612" y2="17.51" gradientTransform="matrix(0.6737798,0,0,1.4175761,-25.92314,-147.94457)" gradientUnits="userSpaceOnUse" xlink:href="#linearGradient3220"/><radialGradient id="radialGradient9613" cx="102" cy="112.305" r="139.559" gradientUnits="userSpaceOnUse"><stop id="stop9615" offset="0" style="stop-color:#535557"/><stop id="stop9617" offset=".138" style="stop-color:#898a8c"/><stop id="stop9619" offset=".203" style="stop-color:#ececec"/><stop id="stop9621" offset=".335" style="stop-color:#fafafa"/><stop id="stop9623" offset=".395" style="stop-color:#fff"/><stop id="stop9625" offset=".531" style="stop-color:#fafafa"/><stop id="stop9627" offset=".845" style="stop-color:#ebecec"/><stop id="stop9629" offset="1" style="stop-color:#e1e2e3"/></radialGradient><linearGradient id="linearGradient6125" x1="32.228" x2="35.936" y1="48" y2="48" gradientTransform="matrix(0.8398488,-0.8398488,0.8167445,0.8167445,-15.712841,44.354581)" gradientUnits="userSpaceOnUse" spreadMethod="reflect" xlink:href="#radialGradient9613"/><filter id="filter4503"><feGaussianBlur id="feGaussianBlur4505" stdDeviation=".438"/></filter><clipPath id="clipPath4092" clipPathUnits="userSpaceOnUse"><path style="fill:#9c0f56" id="path4094" d="M 59.849,42.398 C 57.593,46.987 10.717,106.259 8.774,111.066 C 4.67,121.218 16.431,133.433 25.989,124.269 C 32.291,118.227 66.959,56.111 72.129,51.415 C 75.623,48.241 95.004,41.083 95.004,41.083 L 80.924,18.23 C 80.924,18.23 62.724,36.552 59.849,42.398 z"/></clipPath><linearGradient id="XMLID_3_" x1="11.918" x2="98.418" y1="119.058" y2="44.058" gradientUnits="userSpaceOnUse"><stop style="stop-color:#c9c9c9" id="stop49" offset="0"/><stop style="stop-color:#b2b2b2" id="stop51" offset=".023"/><stop style="stop-color:#9f9f9f" id="stop53" offset=".05"/><stop style="stop-color:#929292" id="stop55" offset=".082"/><stop style="stop-color:#8a8a8a" id="stop57" offset=".122"/><stop style="stop-color:#888" id="stop59" offset=".201"/><stop style="stop-color:#686868;stop-opacity:1" id="stop63" offset="1"/></linearGradient><linearGradient id="XMLID_11_" x1="31.5" x2="32.348" y1="80.044" y2="80.672" gradientTransform="translate(229.83849,405.96228)" gradientUnits="userSpaceOnUse"><stop style="stop-color:#000" id="stop183" offset="0"/><stop style="stop-color:#000;stop-opacity:0" id="stop185" offset="1"/></linearGradient><linearGradient id="XMLID_10_" x1="23.984" x2="12.728" y1="120.765" y2="109.865" gradientTransform="translate(229.83849,405.96228)" gradientUnits="userSpaceOnUse"><stop style="stop-color:#eee" id="stop176" offset="0"/><stop style="stop-color:#535353;stop-opacity:1" id="stop178" offset="1"/></linearGradient><linearGradient id="XMLID_9_" x1="18.777" x2="18.777" y1="129.599" y2="114.606" gradientTransform="translate(229.83849,405.96228)" gradientUnits="userSpaceOnUse"><stop style="stop-color:#000" id="stop169" offset="0"/><stop style="stop-color:#000;stop-opacity:0" id="stop171" offset="1"/></linearGradient><radialGradient id="XMLID_8_" cx="64.988" cy="15.943" r="19.618" gradientTransform="translate(229.83849,405.96228)" gradientUnits="userSpaceOnUse"><stop style="stop-color:#fff" id="stop162" offset="0"/><stop style="stop-color:#888a85" id="stop164" offset="1"/></radialGradient><linearGradient id="XMLID_7_" x1="40.712" x2="48.55" y1="75.172" y2="80.9" gradientTransform="translate(229.83849,405.96228)" gradientUnits="userSpaceOnUse"><stop style="stop-color:#555753" id="stop155" offset=".213"/><stop style="stop-color:#000" id="stop157" offset="1"/></linearGradient><linearGradient id="path30758_1_" x1="16.78" x2="67.724" y1="80.697" y2="80.697" gradientTransform="translate(229.83849,405.96228)" gradientUnits="userSpaceOnUse"><stop style="stop-color:#888" id="stop149" offset="0"/><stop style="stop-color:#ddd" id="stop151" offset=".893"/></linearGradient><linearGradient id="path34280_1_" x1="93.023" x2="93.023" y1="39.387" y2="25.929" gradientTransform="translate(229.83849,405.96228)" gradientUnits="userSpaceOnUse"><stop style="stop-color:#555" id="stop141" offset="0"/><stop style="stop-color:#888" id="stop143" offset=".397"/><stop style="stop-color:#555" id="stop145" offset="1"/></linearGradient><linearGradient id="rect22846_1_" x1="247.602" x2="261.973" y1="-288.608" y2="-288.608" gradientTransform="matrix(0.9428,-0.2511,-0.2421,-0.9089,6.0921912,215.38258)" gradientUnits="userSpaceOnUse"><stop style="stop-color:#888" id="stop135" offset="0"/><stop style="stop-color:#555" id="stop137" offset="1"/></linearGradient><radialGradient id="rect14944_1_" cx="274.566" cy="36.065" r="6.873" gradientTransform="matrix(0.523,-0.2146,-2.627,-7.0521,27.4228,356.0237)" gradientUnits="userSpaceOnUse"><stop style="stop-color:#888a85" id="stop127" offset="0"/><stop style="stop-color:#fff" id="stop129" offset=".621"/><stop style="stop-color:#555753" id="stop131" offset="1"/></radialGradient><radialGradient id="rect14938_1_" cx="290.843" cy="36.07" r="6.874" gradientTransform="matrix(0.4892,-0.2059,-2.5913,-7.0931,29.692,361.6149)" gradientUnits="userSpaceOnUse"><stop style="stop-color:#888a85" id="stop119" offset="0"/><stop style="stop-color:#fff" id="stop121" offset=".621"/><stop style="stop-color:#555753" id="stop123" offset="1"/></radialGradient><radialGradient id="rect10553_1_" cx="292.492" cy="43.389" r="6.873" gradientTransform="matrix(0.498,-0.2212,-2.9368,-8.3284,56.2613,466.2682)" gradientUnits="userSpaceOnUse"><stop style="stop-color:#888a85" id="stop111" offset="0"/><stop style="stop-color:#fff" id="stop113" offset=".621"/><stop style="stop-color:#555753" id="stop115" offset="1"/></radialGradient><radialGradient id="rect14950_1_" cx="92.734" cy="20.431" r="4.145" gradientTransform="matrix(0.6131,-0.2916,-5.2659,-7.9645,125.0096,227.992)" gradientUnits="userSpaceOnUse"><stop style="stop-color:#fff" id="stop103" offset="0"/><stop style="stop-color:#babdb6" id="stop105" offset=".527"/><stop style="stop-color:#888a85" id="stop107" offset="1"/></radialGradient><radialGradient id="rect10551_3_" cx="78.776" cy="44.608" r="14.32" gradientUnits="userSpaceOnUse"><stop style="stop-color:#2e3436" id="stop95" offset="0"/><stop style="stop-color:#000;stop-opacity:1" id="stop97" offset=".722"/><stop style="stop-color:#2e3436" id="stop99" offset="1"/></radialGradient><linearGradient id="rect10551_1_" x1="77.217" x2="73.449" y1="44.766" y2="30.555" gradientUnits="userSpaceOnUse"><stop style="stop-color:#ddd" id="stop89" offset=".722"/><stop style="stop-color:#eeeeec" id="stop91" offset="1"/></linearGradient><radialGradient id="XMLID_6_" cx="77.004" cy="13.14" r="64.406" fx="77.004" fy="13.14" gradientTransform="translate(229.83849,405.96228)" gradientUnits="userSpaceOnUse"><stop style="stop-color:#fff" id="stop82" offset="0"/><stop id="stop13256" offset=".5" style="stop-color:#c3c4c2;stop-opacity:1"/><stop style="stop-color:#000;stop-opacity:1" id="stop84" offset="1"/></radialGradient><linearGradient id="XMLID_5_" x1="15.721" x2="24.936" y1="125.786" y2="108.343" gradientTransform="translate(-80,0)" gradientUnits="userSpaceOnUse"><stop style="stop-color:#000" id="stop75" offset="0"/><stop style="stop-color:#fff" id="stop77" offset=".893"/></linearGradient><linearGradient id="XMLID_4_" x1="40.528" x2="52.982" y1="55.75" y2="64.646" gradientTransform="translate(-80,0)" gradientUnits="userSpaceOnUse"><stop style="stop-color:#fff;stop-opacity:0" id="stop68" offset="0"/><stop style="stop-color:#fff" id="stop70" offset=".893"/></linearGradient><linearGradient id="path2388_1_" x1="14.921" x2="107.755" y1="124.677" y2="-17.99" gradientTransform="translate(229.83849,405.96228)" gradientUnits="userSpaceOnUse"><stop style="stop-color:#ddd" id="stop32" offset="0"/><stop style="stop-color:#888" id="stop34" offset=".686"/><stop style="stop-color:#ddd" id="stop36" offset=".893"/></linearGradient><radialGradient id="path5936_1_" cx="172.123" cy="4.748" r="4.697" gradientTransform="matrix(6.7917,-1.4855,-1.2014,-5.506,-845.12621,725.19548)" gradientUnits="userSpaceOnUse"><stop style="stop-color:#fff" id="stop26" offset="0"/><stop style="stop-color:#3e3e3e" id="stop28" offset="1"/></radialGradient><linearGradient id="XMLID_1_" x1="92.628" x2="104.532" y1="26.589" y2="31.235" gradientTransform="translate(229.83849,405.96228)" gradientUnits="userSpaceOnUse"><stop style="stop-color:#fff" id="stop19" offset="0"/><stop style="stop-color:#888" id="stop21" offset=".639"/></linearGradient><linearGradient id="rect25493_1_" x1="258.884" x2="286.16" y1="-326.09" y2="-287.653" gradientTransform="matrix(0.9065,-0.2414,-0.2421,-0.9089,10.723991,214.40698)" gradientUnits="userSpaceOnUse"><stop style="stop-color:#555" id="stop5" offset="0"/><stop style="stop-color:#888" id="stop7" offset=".686"/></linearGradient><linearGradient id="linearGradient10549" x1="15.721" x2="24.936" y1="125.786" y2="108.343" gradientTransform="translate(-80,0)" gradientUnits="userSpaceOnUse" xlink:href="#XMLID_5_"/><mask id="mask10545" maskUnits="userSpaceOnUse"><path style="fill:url(#linearGradient10549)" id="path10547" d="M -0.051,18.554 L -0.847,9.66 C -0.847,9.66 8.141,4.482 10.38,3.193 C 3.985,-0.79 -3.654,1.07 -3.741,1.093 C -10.903,2.996 -15.908,8.865 -15.908,15.222 C -15.908,15.461 -15.901,15.701 -15.887,15.94 C -15.887,15.941 -15.887,15.941 -15.887,15.942 C -15.887,16.299 -16.25,36.73 -19.253,42.838 C -20.334,45.036 -30.401,58.18 -42.058,73.4 C -54.195,89.247 -69.3,108.968 -70.298,111.44 C -70.839,112.778 -71.079,114.126 -71.079,115.435 C -71.079,119.221 -69.06,122.663 -66.483,124.621 C -66.083,123.92 -65.655,123.178 -65.197,122.392 C -67.02,121.101 -68.463,119.074 -68.895,116.783 C -69.291,114.687 -68.831,112.48 -67.631,110.726 C -66.46,109.013 -64.659,107.855 -62.561,107.463 C -60.935,107.16 -59.182,107.593 -57.621,108.682 C -57.428,108.817 -57.245,108.966 -57.063,109.118 C -46.315,92.233 -27.938,65.35 3.195,23.824 C 1.323,20.784 -0.051,18.554 -0.051,18.554 z"/></mask><linearGradient id="linearGradient11382" x1="258.884" x2="286.16" y1="-326.09" y2="-287.653" gradientTransform="matrix(0.9065,-0.2414,-0.2421,-0.9089,10.723991,214.40698)" gradientUnits="userSpaceOnUse" xlink:href="#rect25493_1_"/><linearGradient id="linearGradient11384" x1="92.628" x2="104.532" y1="26.589" y2="31.235" gradientTransform="translate(229.83849,405.96228)" gradientUnits="userSpaceOnUse" xlink:href="#XMLID_1_"/><radialGradient id="radialGradient11386" cx="172.123" cy="4.748" r="4.697" gradientTransform="matrix(6.7917,-1.4855,-1.2014,-5.506,-845.12621,725.19548)" gradientUnits="userSpaceOnUse" xlink:href="#path5936_1_"/><linearGradient id="linearGradient11388" x1="14.921" x2="107.755" y1="124.677" y2="-17.99" gradientTransform="translate(229.83849,405.96228)" gradientUnits="userSpaceOnUse" xlink:href="#path2388_1_"/><linearGradient id="linearGradient11390" x1="77.04" x2="92.612" y1="14.124" y2="4.882" gradientTransform="translate(229.83849,405.96228)" gradientUnits="userSpaceOnUse" xlink:href="#XMLID_4_"/><linearGradient id="linearGradient11392" x1="40.528" x2="52.982" y1="55.75" y2="64.646" gradientTransform="translate(-80,0)" gradientUnits="userSpaceOnUse" xlink:href="#XMLID_4_"/><radialGradient id="radialGradient11394" cx="77.004" cy="13.14" r="64.406" fx="77.004" fy="13.14" gradientTransform="matrix(0.4337031,0.4442839,-0.7150071,0.6987259,282.84098,375.70944)" gradientUnits="userSpaceOnUse" xlink:href="#XMLID_6_"/><linearGradient id="linearGradient11396" x1="77.217" x2="73.449" y1="44.766" y2="30.555" gradientUnits="userSpaceOnUse" xlink:href="#rect10551_1_"/><radialGradient id="radialGradient11398" cx="78.776" cy="44.608" r="14.32" gradientUnits="userSpaceOnUse" xlink:href="#rect10551_3_"/><radialGradient id="radialGradient11400" cx="92.734" cy="20.431" r="4.145" gradientTransform="matrix(0.6131,-0.2916,-5.2659,-7.9645,125.0096,227.992)" gradientUnits="userSpaceOnUse" xlink:href="#rect14950_1_"/><radialGradient id="radialGradient11402" cx="292.492" cy="43.389" r="6.873" gradientTransform="matrix(0.498,-0.2212,-2.9368,-8.3284,56.2613,466.2682)" gradientUnits="userSpaceOnUse" xlink:href="#rect10553_1_"/><radialGradient id="radialGradient11404" cx="290.843" cy="36.07" r="6.874" gradientTransform="matrix(0.4892,-0.2059,-2.5913,-7.0931,29.692,361.6149)" gradientUnits="userSpaceOnUse" xlink:href="#rect14938_1_"/><radialGradient id="radialGradient11406" cx="274.566" cy="36.065" r="6.873" gradientTransform="matrix(0.523,-0.2146,-2.627,-7.0521,27.4228,356.0237)" gradientUnits="userSpaceOnUse" xlink:href="#rect14944_1_"/><linearGradient id="linearGradient11408" x1="247.602" x2="261.973" y1="-288.608" y2="-288.608" gradientTransform="matrix(0.9428,-0.2511,-0.2421,-0.9089,6.0921912,215.38258)" gradientUnits="userSpaceOnUse" xlink:href="#rect22846_1_"/><linearGradient id="linearGradient11410" x1="93.023" x2="93.023" y1="39.387" y2="25.929" gradientTransform="translate(229.83849,405.96228)" gradientUnits="userSpaceOnUse" xlink:href="#path34280_1_"/><linearGradient id="linearGradient11412" x1="16.78" x2="67.724" y1="80.697" y2="80.697" gradientTransform="translate(229.83849,405.96228)" gradientUnits="userSpaceOnUse" xlink:href="#path30758_1_"/><linearGradient id="linearGradient11414" x1="40.712" x2="48.55" y1="75.172" y2="80.9" gradientTransform="translate(229.83849,405.96228)" gradientUnits="userSpaceOnUse" xlink:href="#XMLID_7_"/><radialGradient id="radialGradient11416" cx="64.988" cy="15.943" r="19.618" gradientTransform="translate(229.83849,405.96228)" gradientUnits="userSpaceOnUse" xlink:href="#XMLID_8_"/><linearGradient id="linearGradient11418" x1="18.777" x2="18.777" y1="129.599" y2="114.606" gradientTransform="translate(229.83849,405.96228)" gradientUnits="userSpaceOnUse" xlink:href="#XMLID_9_"/><linearGradient id="linearGradient11420" x1="17.509" x2="18.876" y1="123.231" y2="107.209" gradientTransform="translate(229.83849,405.96228)" gradientUnits="userSpaceOnUse" xlink:href="#XMLID_10_"/><linearGradient id="linearGradient11422" x1="31.5" x2="32.348" y1="80.044" y2="80.672" gradientTransform="translate(229.83849,405.96228)" gradientUnits="userSpaceOnUse" xlink:href="#XMLID_11_"/><linearGradient id="linearGradient11424" x1="11.918" x2="98.418" y1="119.058" y2="44.058" gradientUnits="userSpaceOnUse" xlink:href="#XMLID_3_"/><linearGradient id="linearGradient11510" x1="9.303" x2="-5.854" y1="133.252" y2="130.593" gradientUnits="userSpaceOnUse" xlink:href="#linearGradient4529"/><linearGradient id="linearGradient11512" x1="9.303" x2="-5.854" y1="133.252" y2="130.593" gradientUnits="userSpaceOnUse" xlink:href="#linearGradient4529"/><filter id="filter11957"><feGaussianBlur id="feGaussianBlur11959" stdDeviation="2.34"/></filter><linearGradient id="linearGradient12019" x1="40.528" x2="52.982" y1="55.75" y2="64.646" gradientTransform="translate(-80,0)" gradientUnits="userSpaceOnUse" xlink:href="#XMLID_4_"/><linearGradient id="linearGradient12037" x1="93.023" x2="93.023" y1="39.387" y2="25.929" gradientTransform="translate(229.83849,405.96228)" gradientUnits="userSpaceOnUse" xlink:href="#path34280_1_"/><linearGradient id="linearGradient12051" x1="11.918" x2="98.418" y1="119.058" y2="44.058" gradientUnits="userSpaceOnUse" xlink:href="#XMLID_3_"/><filter id="filter12490"><feGaussianBlur id="feGaussianBlur12492" stdDeviation="2.351"/></filter></defs><metadata id="metadata5681"/><g id="layer1"><path style="fill:#000;fill-opacity:1;filter:url(#filter12490);opacity:.8" id="path11963" d="M 97.46875,6 C 97.18152,6.0094408 97.00831,6.0304757 97,6.03125 C 88.50154,6.7547259 81.81102,12.649899 80.96875,19.9375 C 80.96299,19.970198 76.86754,40.857308 72.875,46.3125 C 69.74177,50.594872 11.13376,102.7197 8.28125,107.28125 C 6.43475,110.23375 6.09196,113.64754 6.8125,116.75 C 6.81481,116.75995 6.81016,116.77131 6.8125,116.78125 C 7.27817,118.76618 8.16525,120.60725 9.40625,122.125 C 9.47154,122.20534 9.55786,122.26531 9.625,122.34375 C 9.73846,122.47566 9.85017,122.62373 9.96875,122.75 C 10.13123,122.9234 10.29696,123.08786 10.46875,123.25 C 10.78531,123.54834 11.12253,123.83716 11.46875,124.09375 C 11.51009,124.12442 11.55201,124.15746 11.59375,124.1875 C 11.75577,124.30387 11.92581,124.39345 12.09375,124.5 C 12.34901,124.66192 12.60676,124.83089 12.875,124.96875 C 12.90463,124.98396 12.93897,124.98509 12.96875,125 C 13.16389,125.09785 13.36099,125.19684 13.5625,125.28125 C 13.66656,125.32459 13.76932,125.36661 13.875,125.40625 C 13.96058,125.43847 14.03838,125.47026 14.125,125.5 C 14.26755,125.5489 14.41722,125.58297 14.5625,125.625 C 15.11282,125.78408 15.69527,125.91534 16.28125,125.96875 C 16.62585,125.99943 16.98844,126.00883 17.34375,126 C 17.49276,125.99631 17.6305,125.97967 17.78125,125.96875 C 18.30718,125.93117 18.83023,125.84877 19.375,125.71875 C 19.49773,125.68971 19.62642,125.65895 19.75,125.625 C 19.94658,125.5707 20.14518,125.50448 20.34375,125.4375 C 20.68974,125.32116 21.02361,125.18743 21.375,125.03125 C 21.51637,124.96837 21.67036,124.91327 21.8125,124.84375 C 22.01661,124.74364 22.23195,124.64533 22.4375,124.53125 C 22.50876,124.4917 22.58484,124.44751 22.65625,124.40625 C 22.93651,124.24411 23.21755,124.06393 23.5,123.875 C 23.72992,123.72139 24.01123,123.49888 24.3125,123.25 C 24.51715,123.08053 24.76474,122.86659 25,122.65625 C 25.31217,122.37641 25.73134,121.97195 26.09375,121.625 C 26.40496,121.32709 26.7476,121.00087 27.09375,120.65625 C 27.10095,120.64393 27.11785,120.63734 27.125,120.625 C 40.39609,107.39872 78.3196,61.213642 83.8125,57.75 C 87.95646,55.136652 109.0625,51.3125 109.0625,51.3125 C 113.21925,49.41573 118.90506,43.445638 121.3125,34.4375 C 121.72869,32.077134 121.4811,29.596922 121.375,30.03125 L 108.59375,35.78125 L 100.21875,29.0625 L 98.78125,25.40625 L 99.28125,19.21875 L 113.34375,13.96875 L 113.125,12.15625 C 107.67312,6.0868239 99.47934,5.9339145 97.46875,6 z M 17.8125,106.1875 C 21.2472,106.15572 24.40096,109.89596 24.375,114.15625 C 24.3535,117.67982 20.93573,121.18715 17.5,121.21875 C 14.06408,121.25138 10.73518,117.39784 10.6875,113.53125 C 10.68465,113.29896 10.66822,113.04283 10.6875,112.8125 C 10.70682,112.58223 10.74047,112.35167 10.78125,112.125 C 10.90349,111.44483 11.13404,110.80542 11.4375,110.1875 C 11.53867,109.98155 11.63003,109.78948 11.75,109.59375 C 12.94961,107.63625 15.09816,106.21329 17.8125,106.1875 z"/><g id="g11357" transform="matrix(1.0223499,0.1802679,-0.1801715,1.0218034,-142.50883,-466.04399)"><path style="fill:url(#linearGradient11382)" id="rect25493" d="M 322.52649,444.25728 C 326.15949,443.01428 332.35849,434.45128 332.98149,424.78428 C 333.00949,424.35428 333.65649,426.67828 333.65649,428.98828 C 332.87949,437.94128 328.47049,444.55028 324.84449,447.04628 L 322.52649,444.25728 z"/><path style="fill:#888a85" id="path3285" d="M 332.98149,424.78428 L 321.82849,432.38828 L 312.74849,427.41628 C 312.08149,428.88428 315.95449,447.98028 320.22749,446.96228 C 328.04849,445.09828 332.16349,435.78528 332.98149,424.78428 z"/><path style="fill:url(#linearGradient11384)" id="path23" d="M 322.07549,432.68428 L 323.06949,441.37828 L 324.97749,444.59028 C 326.91449,443.03428 328.49449,440.87628 329.72849,438.28428 C 331.33649,434.63428 332.30349,430.21428 332.65649,425.47228 L 322.07549,432.68428 z" enable-background="new"/><path style="opacity:.51380005;fill:url(#radialGradient11386)" id="path5936" d="M 313.59749,428.19228 C 313.59449,428.19728 313.57749,428.21928 313.57649,428.22628 C 313.57149,428.23928 313.56449,428.27228 313.56049,428.28828 C 313.04649,430.36728 316.00549,448.15728 320.19449,447.15928 C 321.12049,446.93828 322.00949,446.60928 322.83249,446.18928 L 320.58049,431.94628 L 313.59749,428.19228 z" enable-background="new"/><path style="fill:url(#linearGradient11388)" id="path2388" d="M 305.84149,406.08928 C 297.90049,408.19828 292.53349,414.90528 292.95349,421.96328 C 292.95349,421.99528 292.56249,442.51428 289.68749,448.36028 C 287.43149,452.94928 240.55549,512.22128 238.61249,517.02828 C 234.50849,527.18028 246.26949,539.39528 255.82749,530.23128 C 262.12949,524.18928 296.79749,462.07328 301.96749,457.37728 C 305.46149,454.20328 324.84249,447.04528 324.84249,447.04528 L 310.76249,424.19228 L 310.04449,416.17028 L 322.15949,409.19128 C 315.08849,403.65028 305.90349,406.07228 305.84149,406.08928 z M 247.46049,514.40928 C 250.71349,513.80428 254.33749,516.82428 255.02549,520.87228 C 255.59449,524.22028 252.93349,528.13028 249.67949,528.73528 C 246.42549,529.34128 242.61749,526.22128 241.92549,522.55928 C 241.26149,519.04028 243.34849,515.17628 247.46049,514.40928 z"/><path style="fill:url(#linearGradient11392)" id="path72" d="M -0.051,18.554 L -0.847,9.66 C -0.847,9.66 8.141,4.482 10.38,3.193 C 3.985,-0.79 -3.654,1.07 -3.741,1.093 C -10.903,2.996 -15.908,8.865 -15.908,15.222 C -15.908,15.461 -15.901,15.701 -15.887,15.94 C -15.887,15.941 -15.887,15.941 -15.887,15.942 C -15.887,16.299 -16.25,36.73 -19.253,42.838 C -20.334,45.036 -30.401,58.18 -42.058,73.4 C -54.195,89.247 -69.3,108.968 -70.298,111.44 C -70.839,112.778 -71.079,114.126 -71.079,115.435 C -71.079,119.221 -69.06,122.663 -66.483,124.621 C -66.083,123.92 -65.655,123.178 -65.197,122.392 C -67.02,121.101 -68.463,119.074 -68.895,116.783 C -69.291,114.687 -68.831,112.48 -67.631,110.726 C -66.46,109.013 -64.659,107.855 -62.561,107.463 C -60.935,107.16 -59.182,107.593 -57.621,108.682 C -57.428,108.817 -57.245,108.966 -57.063,109.118 C -46.315,92.233 -27.938,65.35 3.195,23.824 C 1.323,20.784 -0.051,18.554 -0.051,18.554 z" mask="url(#mask10545)" transform="translate(309.83849,405.96228)"/><path style="fill:url(#radialGradient11394)" id="path86" d="M 310.76249,424.19228 L 310.04449,416.17028 L 322.15949,409.19128 C 320.21949,407.64028 317.84449,406.51628 315.23549,405.92928 C 312.04649,405.90828 308.79349,406.38428 306.47749,407.16528 C 298.74149,409.77428 294.69849,415.49528 294.85149,422.31128 L 303.63249,437.15128 L 306.31749,435.47228 L 312.56749,446.29728 L 310.37649,447.80128 L 313.73849,451.42828 L 324.84249,447.04628 L 310.76249,424.19228 z"/><polygon style="fill:url(#linearGradient11396)" id="rect10551_2_" points="65.82 36.446 76.487 27.791 85.179 40.128 72.511 46.783 65.82 36.446" transform="translate(229.83849,405.96228)"/><polygon style="fill:url(#radialGradient11398)" id="rect10551" points="65.82 36.446 76.487 29.791 83.179 40.128 72.511 46.783 65.82 36.446" transform="translate(229.83849,405.96228)"/><polygon style="fill:url(#radialGradient11400)" id="rect14950" points="68.311 35.653 74.616 32.078 80.237 40.809 73.932 44.384 68.311 35.653" transform="translate(229.83849,405.96228)"/><polygon style="fill:url(#radialGradient11402)" id="rect10553" points="67.891 36.615 77.497 32.233 77.891 33.323 68.284 37.705 67.891 36.615" transform="translate(229.83849,405.96228)"/><polygon style="fill:url(#radialGradient11404)" id="rect14938" points="72.212 42.972 81.653 38.899 82.001 39.827 72.56 43.9 72.212 42.972" transform="translate(229.83849,405.96228)"/><polygon style="fill:url(#radialGradient11406)" id="rect14944" points="69.661 39.991 79.757 35.751 80.11 36.673 70.015 40.914 69.661 39.991" transform="translate(229.83849,405.96228)"/><path style="fill:url(#linearGradient11410)" id="path34280" d="M 320.80249,431.89128 C 320.76149,432.16128 322.10049,439.91928 322.18149,440.18928 C 322.85449,444.45728 323.83149,444.59528 324.03549,445.34928 C 324.76349,444.93528 324.29249,445.39528 324.92349,444.84628 C 324.80849,444.48028 323.48549,441.99528 322.95849,441.11128 C 322.71249,438.97728 321.93149,433.00328 321.86449,432.43528 C 321.45549,432.21328 321.29849,432.12528 320.80249,431.89128 z"/><path style="fill:url(#linearGradient11412)" id="path30758" d="M 246.62049,511.92528 C 251.42949,510.02428 257.88249,515.30428 257.53849,521.11028 C 260.82449,517.31028 296.88449,460.33528 297.44649,457.74428 C 298.30649,453.77728 294.17949,450.82228 290.89849,452.88728 C 288.60949,454.32628 246.30749,512.04828 246.62049,511.92528 z"/><path style="fill:url(#linearGradient11414);stroke:#000" id="path159" d="M 292.02849,454.56028 C 289.53249,456.91828 266.85449,487.60628 250.66249,509.77928 C 252.02149,510.08228 253.37949,510.67028 254.63749,511.58128 C 256.37949,512.84228 257.66849,514.51428 258.50849,516.33428 C 267.27449,503.42428 294.06749,460.80328 295.50149,457.24628 C 295.53749,457.05828 295.56249,456.87128 295.56249,456.69028 C 295.56249,455.85828 295.18949,455.11828 294.50449,454.63828 C 293.74349,454.10528 292.82549,454.08928 292.02849,454.56028 z"/><path style="fill:url(#radialGradient11416)" id="path166" d="M 294.94349,422.46628 C 294.86849,425.66728 294.31649,443.48028 291.48249,449.24328 C 291.40649,449.39728 291.28449,449.60828 291.13649,449.84928 C 291.56049,449.26728 291.86549,448.81828 292.01449,448.54228 C 294.75749,443.48028 297.55549,430.48328 297.76449,427.23428 L 294.94349,422.46628 z"/><path style="opacity:.5;fill:url(#linearGradient11418)" id="path173" d="M 258.69149,526.59428 C 259.24949,525.08628 259.45349,523.49328 259.17549,521.97428 C 258.59949,518.81928 256.61749,515.87328 253.87449,514.09028 C 251.69549,512.67428 249.24349,512.11128 246.97049,512.50528 C 244.03849,513.01528 241.52249,514.52228 239.88549,516.74928 C 238.45149,518.70028 237.78049,521.08528 237.96049,523.44028 C 239.33149,531.34628 248.26549,537.48228 255.82849,530.23128 C 256.49049,529.59728 257.46949,528.33628 258.69149,526.59428 z M 249.67949,528.73528 C 246.42549,529.34128 242.61749,526.22128 241.92549,522.55928 C 241.26049,519.03928 243.34749,515.17528 247.46049,514.40928 C 250.71349,513.80428 254.33749,516.82428 255.02549,520.87228 C 255.59449,524.22028 252.93349,528.13028 249.67949,528.73528 z"/><path style="fill:url(#linearGradient11420)" id="path180" d="M 256.01149,520.70428 C 255.59949,518.27928 254.18149,516.01528 252.21849,514.64428 C 250.65849,513.55528 248.90449,513.12328 247.27849,513.42528 C 245.18049,513.81728 243.38049,514.97528 242.20849,516.68828 C 241.00949,518.44128 240.54849,520.64928 240.94449,522.74528 C 241.75449,527.03328 246.08849,530.42228 249.86349,529.71928 C 253.62049,529.02028 256.66649,524.55528 256.01149,520.70428 z M 249.67949,528.73528 C 246.42549,529.34128 242.61749,526.22128 241.92549,522.55928 C 241.26049,519.03928 243.34749,515.17528 247.46049,514.40928 C 250.71349,513.80428 254.33749,516.82428 255.02549,520.87228 C 255.59449,524.22028 252.93349,528.13028 249.67949,528.73528 z"/><path style="opacity:.4;fill:url(#linearGradient11422)" id="path187" d="M 285.39049,455.48028 C 285.64549,454.95828 285.88049,454.31028 286.09549,453.56728 C 274.64749,469.16528 240.27149,512.92628 238.61349,517.02828 C 238.29049,517.82728 238.07649,518.63728 237.94149,519.45128 C 242.96749,511.10428 283.36449,459.62828 285.39049,455.48028 z"/><path style="fill:url(#linearGradient11424);filter:url(#filter4503)" id="path65" d="M 72.13,49.416 C 66.96,54.112 32.292,116.228 25.99,122.27 C 18.09,129.844 8.695,122.813 7.986,114.414 C 7.207,123.618 17.468,132.44 25.99,124.27 C 32.292,118.228 66.96,56.112 72.13,51.416 C 75.624,48.242 95.005,41.084 95.005,41.084 L 94.004,39.459 C 90.005,40.965 75.147,46.674 72.13,49.416 z" clip-path="url(#clipPath4092)" transform="translate(229.83849,405.96228)"/><path style="fill:url(#linearGradient11408)" id="rect22846" d="M 310.04449,416.17028 L 322.15949,409.19128 L 322.67749,410.88528 L 310.13349,418.26728 L 310.04449,416.17028 z"/><path style="fill:url(#linearGradient11390);fill-opacity:1" id="path46" d="M 310.21449,416.07228 L 322.15949,409.19128 C 321.63949,408.78428 321.10749,408.43228 320.56949,408.10728 L 310.04449,414.17028 L 310.21449,416.07228 z"/></g><path style="fill:#000;fill-opacity:1;stroke:none;stroke-width:.47008219000000001;stroke-linecap:round;stroke-linejoin:round;stroke-miterlimit:4;stroke-dasharray:none;stroke-dashoffset:1.08779998;stroke-opacity:1;filter:url(#filter11957);opacity:.80000000000000004" id="path11428" d="M 10.375,9 L 4.21875,15.46875 L 9.125,23.1875 C 13.08003,25.264868 17.14186,27.693549 20.375,30.75 L 69.625,77.3125 L 65.5625,81.5625 L 70.8125,86.53125 C 73.7103,86.859904 76.69384,88.078409 79.15625,90.40625 C 81.64614,92.760071 83.16605,95.732279 83.625,98.625 L 108.34375,122.03125 C 114.08456,127.45836 128.43479,112.52526 122.65625,107.0625 L 97.90625,83.6875 C 94.97813,83.378226 91.9274,82.010074 89.4375,79.65625 C 86.9751,77.328414 85.57063,74.424084 85.09375,71.5625 L 79.84375,66.59375 L 75.78125,70.84375 L 26.53125,24.28125 C 23.29811,21.224799 20.16307,17.382339 18.375,13.53125 L 10.375,9 z"/><g id="g10397" transform="matrix(0.9660937,-2.5302336e-2,2.3546854e-2,0.9608617,2.3338765,6.1294086)"><path id="rect3006" d="M 1.750754,7.673054 L 6.651221,15.840499 C 10.689771,18.10883 14.818666,20.740966 18.085644,24.007944 L 103.30145,109.22375 L 109.83541,102.68979 L 24.6196,17.473988 C 21.352622,14.20701 18.204176,10.093654 16.452155,6.039565 L 8.28471,1.139098 L 1.750754,7.673054 z" style="fill:url(#linearGradient6125);fill-opacity:1;stroke:none;stroke-width:.47008219;stroke-linecap:round;stroke-linejoin:round;stroke-miterlimit:4;stroke-dasharray:none;stroke-dashoffset:1.08779998;stroke-opacity:1"/><rect style="fill:url(#linearGradient6122);fill-opacity:1;stroke:none;stroke-width:.5;stroke-linecap:round;stroke-linejoin:round;stroke-miterlimit:4;stroke-dasharray:none;stroke-dashoffset:1.08779998;stroke-opacity:1" id="rect3912" width="1.117" height="98.672" x="-1.357" y="-123.116" transform="matrix(0.7071068,-0.7071068,-0.7071068,-0.7071068,0,0)"/><rect style="opacity:.3857678;fill:url(#linearGradient6119);fill-opacity:1;stroke:none;stroke-width:.5;stroke-linecap:round;stroke-linejoin:round;stroke-miterlimit:4;stroke-dasharray:none;stroke-dashoffset:1.08779998;stroke-opacity:1" id="rect4944" width="1.602" height="63.509" x=".894" y="-85.707" transform="matrix(-0.7071068,0.7071068,-0.7071068,-0.7071068,0,0)"/><g id="g3842" clip-path="url(#clipPath3850)" transform="matrix(0.8167445,-0.8167445,0.8167445,0.8167445,5.2761549,23.749521)"><path style="fill:#535557;fill-opacity:1;fill-rule:evenodd;stroke:none;stroke-width:1px;stroke-linecap:butt;stroke-linejoin:miter;stroke-opacity:1;filter:url(#filter3834)" id="path3726" d="M 4.296875,-4.12891 L 5.6640625,-4.12891 C 8.3203089,-0.31380448 8.5987355,3.8409896 7.6171875,8.17578 L 4.9804688,9.1523436 L 4.296875,-4.12891 z"/><path id="path3728" d="M 18.977324,-4.12891 L 17.610137,-4.12891 C 14.95389,-0.31380448 14.675464,3.8409896 15.657012,8.17578 L 18.293731,9.1523436 L 18.977324,-4.12891 z" style="fill:#535557;fill-opacity:1;fill-rule:evenodd;stroke:none;stroke-width:1px;stroke-linecap:butt;stroke-linejoin:miter;stroke-opacity:1;filter:url(#filter3838)"/><path style="fill:#000;fill-opacity:1;fill-rule:evenodd;stroke:none;stroke-width:1px;stroke-linecap:butt;stroke-linejoin:miter;stroke-opacity:1;filter:url(#filter3838)" id="path3969" d="M 18.977324,-4.12891 L 18.231618,-4.0598566 C 16.117808,-1.3279433 15.743286,-1.0597872 15.864172,4.9302704 L 18.293731,9.1523436 L 18.977324,-4.12891 z"/></g><rect id="rect3886" width="1.914" height="109.049" x=".849" y="41.332" transform="matrix(0.7071068,-0.7071068,0.7071068,0.7071068,0,0)" style="fill:url(#linearGradient6112);fill-opacity:1;stroke:none;stroke-width:.5;stroke-linecap:round;stroke-linejoin:round;stroke-miterlimit:4;stroke-dasharray:none;stroke-dashoffset:1.08779998;stroke-opacity:1"/><path id="path3925" d="M 32,-12 L 30,-4 C 34.143852,8.2009511 38.115959,5.0342786 42,-4 L 40,-12 L 32,-12 z" transform="matrix(0.8167445,-0.8167445,0.8167445,0.8167445,-14.584136,43.609812)" style="fill:url(#linearGradient3943);fill-opacity:1;stroke:url(#linearGradient6517);stroke-width:.37;stroke-linecap:round;stroke-linejoin:round;stroke-miterlimit:4;stroke-dasharray:none;stroke-dashoffset:1.08779998;stroke-opacity:1"/><path id="rect3956" d="M 63.529919,78.09273 L 68.834311,83.397123 C 71.82354,83.817882 74.899226,85.18508 77.387407,87.673261 C 79.903365,90.189215 81.385477,93.328601 81.786903,96.34972 L 106.78156,121.34436 C 112.58247,127.14528 127.79361,112.01036 121.95458,106.17133 L 96.95993,81.176682 C 93.938823,80.775254 90.799446,79.29314 88.283481,76.777186 C 85.795299,74.289007 84.428105,71.213314 84.007344,68.22409 L 78.70295,62.919697 L 63.529919,78.09273 z" style="opacity:1;fill:url(#linearGradient4190);fill-opacity:1;stroke:none;stroke-width:.37;stroke-linecap:round;stroke-linejoin:round;stroke-miterlimit:4;stroke-dasharray:none;stroke-dashoffset:1.08779998;stroke-opacity:1"/><path id="path4196" d="M -8,120 C 1.7462188,130.07566 10.00314,126.89342 16,120 L 12,136 L -16,128 L -20,112 L -8,120 z" clip-path="url(#clipPath4242)" transform="matrix(0.9483145,-0.9483145,0.9483145,0.9483145,-6.4444639,0.531831)" style="fill:#ffa700;fill-opacity:1;fill-rule:evenodd;stroke:none;stroke-width:1px;stroke-linecap:butt;stroke-linejoin:miter;stroke-opacity:1;filter:url(#filter4238)"/><rect id="rect4249" width="21.458" height="1.113" x="-10.297" y="100.168" transform="matrix(0.7071068,-0.7071068,0.7071068,0.7071068,0,0)" style="opacity:.48689138;fill:orange;fill-opacity:1;stroke:none;stroke-width:.37;stroke-linecap:round;stroke-linejoin:round;stroke-miterlimit:4;stroke-dasharray:none;stroke-dashoffset:1.08779998;stroke-opacity:1"/><path id="rect4320" d="M 72.972033,68.720893 L 75.892922,65.800004 L 81.066844,70.973925 C 80.921148,71.564914 80.822369,72.165286 81.579665,72.936868 L 79.073097,75.857759 C 78.372014,75.392484 77.997186,74.796708 78.21501,73.963871 L 72.972033,68.720893 z" style="opacity:.83895126;fill:url(#linearGradient4346);fill-opacity:1;stroke:none;stroke-width:.37;stroke-linecap:round;stroke-linejoin:round;stroke-miterlimit:4;stroke-dashoffset:1.08779998;stroke-opacity:1"/><path id="rect4340" d="M 4.6713727,129.88196 L 7.2816355,129.49996 C 7.2464436,130.37087 7.2584731,130.8014 7.8438776,132.01123 L 5.1273299,132.01123 C 4.7973883,130.83537 4.6035939,130.49599 4.6713727,129.88196 z" transform="matrix(0.7071068,-0.7071068,0.7071068,0.7071068,-4,-4)" style="opacity:.74531836;fill:url(#linearGradient4342);fill-opacity:1;stroke:none;stroke-width:.37;stroke-linecap:round;stroke-linejoin:round;stroke-miterlimit:4;stroke-dashoffset:1.08779998;stroke-opacity:1;filter:url(#filter4404)"/><rect id="rect4432" width="10.645" height=".391" x="-.643" y="126.047" transform="matrix(0.7071068,-0.7071068,0.7071068,0.7071068,0,0)" style="opacity:1;fill:url(#radialGradient4440);fill-opacity:1;stroke:none;stroke-width:.37;stroke-linecap:round;stroke-linejoin:round;stroke-miterlimit:4;stroke-dasharray:none;stroke-dashoffset:1.08779998;stroke-opacity:1"/><path id="path4454" d="M 83.597656,68.53125 L 68.753906,82.984375 C 84.820174,88.576948 78.33289,74.329762 83.597656,68.53125 z" style="fill:url(#linearGradient4471);fill-opacity:1;fill-rule:evenodd;stroke:none;stroke-width:1px;stroke-linecap:butt;stroke-linejoin:miter;stroke-opacity:1;filter:url(#filter4501)"/><path style="fill:url(#linearGradient4515);fill-opacity:1;fill-rule:evenodd;stroke:none;stroke-width:1px;stroke-linecap:butt;stroke-linejoin:miter;stroke-opacity:1;filter:url(#filter4501)" id="path4505" d="M 87.597656,72.53125 L 72.753906,86.984375 C 88.820174,92.576948 82.33289,78.329762 87.597656,72.53125 z" transform="matrix(-1,0,0,-1,169.63281,168.51104)"/><rect id="rect4517" width="5.856" height="29.279" x="-7.5" y="132.03" rx="2.928" ry="2.928" transform="matrix(0.7071068,-0.7071068,0.7071068,0.7071068,0,0)" style="opacity:.83895126;fill:url(#linearGradient4525);fill-opacity:1;stroke:none;stroke-width:.37;stroke-linecap:round;stroke-linejoin:round;stroke-miterlimit:4;stroke-dasharray:none;stroke-dashoffset:1.08779998;stroke-opacity:1"/><rect id="rect4527" width="11.601" height="1.105" x="-1.193" y="130.973" rx="2.928" ry=".558" transform="matrix(0.7071068,-0.7071068,0.7071068,0.7071068,-4,-4)" style="opacity:.83895126;fill:url(#linearGradient4537);fill-opacity:1;stroke:none;stroke-width:.37;stroke-linecap:round;stroke-linejoin:round;stroke-miterlimit:4;stroke-dasharray:none;stroke-dashoffset:1.08779998;stroke-opacity:1;filter:url(#filter4551)"/><path id="path4559" d="M 13.83125,81.09375 L 12.33125,82.59375 L 17.64375,87.90625 C 20.632979,88.327007 23.718069,89.699319 26.20625,92.1875 C 28.722207,94.703451 30.179824,97.822631 30.58125,100.84375 L 55.58125,125.84375 C 59.791769,130.05428 68.947177,123.22603 71.425,116.9375 C 68.058606,122.54366 60.345306,127.60781 56.58125,123.84375 L 31.58125,98.84375 C 31.179824,95.822631 29.722207,92.703451 27.20625,90.1875 C 24.718069,87.699319 21.632979,86.327007 18.64375,85.90625 L 13.83125,81.09375 z" clip-path="url(#clipPath4588)" transform="translate(50.492188,-4.0046875)" style="opacity:1;fill:#996100;fill-opacity:1;stroke:none;stroke-width:.37;stroke-linecap:round;stroke-linejoin:round;stroke-miterlimit:4;stroke-dasharray:none;stroke-dashoffset:1.08779998;stroke-opacity:1;filter:url(#filter4584)"/><rect style="opacity:.576779;fill:url(#radialGradient4602);fill-opacity:1;stroke:none;stroke-width:.37;stroke-linecap:round;stroke-linejoin:round;stroke-miterlimit:4;stroke-dasharray:none;stroke-dashoffset:1.08779998;stroke-opacity:1" id="rect4596" width="10.645" height=".391" x="-.091" y="100.359" transform="matrix(0.7071068,-0.7071068,0.7071068,0.7071068,0,0)"/><rect style="opacity:.576779;fill:url(#linearGradient4604);fill-opacity:1;stroke:none;stroke-width:.37;stroke-linecap:round;stroke-linejoin:round;stroke-miterlimit:4;stroke-dasharray:none;stroke-dashoffset:1.08779998;stroke-opacity:1;filter:url(#filter4626)" id="rect4598" width="12.602" height="4.053" x="-1.193" y="129.592" clip-path="url(#clipPath4632)" rx="0" ry="0" transform="matrix(0.7071068,-0.7071068,0.7071068,0.7071068,-21.221011,-22.313001)"/><rect id="rect4638" width="7.907" height="1.705" x="3.157" y="130.075" clip-path="url(#clipPath4632)" rx="0" ry="0" transform="matrix(0.7071068,-0.7071068,0.7071068,0.7071068,-21.321011,-22.413001)" style="opacity:.576779;fill:url(#linearGradient4640);fill-opacity:1;stroke:none;stroke-width:.37;stroke-linecap:round;stroke-linejoin:round;stroke-miterlimit:4;stroke-dasharray:none;stroke-dashoffset:1.08779998;stroke-opacity:1;filter:url(#filter4626)"/><path style="fill:url(#linearGradient6930);fill-opacity:1;stroke:none;stroke-width:.30655462;stroke-linecap:round;stroke-linejoin:round;stroke-miterlimit:4;stroke-dasharray:none;stroke-dashoffset:1.08779998;stroke-opacity:1" id="path6537" d="M 2.9032773,7.9724105 L 7.1391831,15.032254 C 18.678358,20.720438 19.246981,15.680572 15.610994,6.5604419 L 8.5511516,2.3245361 L 2.9032773,7.9724105 z"/><rect style="opacity:.83895126;fill:url(#linearGradient7698);fill-opacity:1;stroke:none;stroke-width:.37;stroke-linecap:round;stroke-linejoin:round;stroke-miterlimit:4;stroke-dasharray:none;stroke-dashoffset:1.08779998;stroke-opacity:1" id="rect7696" width="5.856" height="29.279" x="4.521" y="132.737" rx="2.928" ry="2.928" transform="matrix(0.7071068,-0.7071068,0.7071068,0.7071068,0,0)"/><rect style="opacity:.95131088;fill:url(#linearGradient4338);fill-opacity:1;stroke:none;stroke-width:.37;stroke-linecap:round;stroke-linejoin:round;stroke-miterlimit:4;stroke-dasharray:none;stroke-dashoffset:1.08779998;stroke-opacity:1" id="rect4336" width="2.583" height="38.179" x=".947" y="126.143" transform="matrix(0.7071068,-0.7071068,0.7071068,0.7071068,0,0)"/></g></g></svg>
