<svg xmlns="http://www.w3.org/2000/svg" xmlns:cc="http://web.resource.org/cc/" xmlns:svg="http://www.w3.org/2000/svg" xmlns:xlink="http://www.w3.org/1999/xlink" id="svg2" width="128" height="128" version="1.0"><defs id="defs4"><linearGradient id="linearGradient26907" x1="-84.002" x2="-12.003" y1="-383.997" y2="-383.997" gradientTransform="matrix(0,1,-1,0,-39.9985,140.0029)" gradientUnits="userSpaceOnUse"><stop style="stop-color:#888a85;stop-opacity:1" id="stop26909" offset="0"/><stop style="stop-color:#2e3436;stop-opacity:1" id="stop26911" offset="1"/></linearGradient><linearGradient id="linearGradient3711" x1="-84.002" x2="-23.516" y1="-383.997" y2="-383.998" gradientTransform="matrix(0,1,-1,0,-39.9985,140.0029)" gradientUnits="userSpaceOnUse"><stop id="stop3713" offset="0" style="stop-color:white;stop-opacity:1"/><stop id="stop3715" offset="1" style="stop-color:white;stop-opacity:0"/></linearGradient><linearGradient id="linearGradient1976" x1="-70.003" x2="-11.916" y1="-383.997" y2="-383.997" gradientTransform="matrix(0,1,-1,0,-39.9985,140.0029)" gradientUnits="userSpaceOnUse" xlink:href="#linearGradient26907"/><radialGradient id="radialGradient1978" cx="343.999" cy="92" r="36" fx="343.999" fy="92" gradientUnits="userSpaceOnUse" xlink:href="#linearGradient3711"/><linearGradient id="linearGradient1980" x1="-88.058" x2="-45.097" y1="-131.931" y2="-131.931" gradientTransform="matrix(0,1.022977,-1.022977,0,111.9686,137.8125)" gradientUnits="userSpaceOnUse" xlink:href="#linearGradient3711"/></defs><metadata id="metadata7"/><g id="layer1"><g id="g3221" transform="matrix(1.555556,0,0,1.555556,-320.2223,-72.88888)"><circle id="circle3581_2_" cx="343.999" cy="92" r="36" rx="8.001" ry="8.001" transform="matrix(-0.965728,0.258766,-0.258766,-0.965728,603.0159,87.8317)" style="fill:url(#linearGradient1976);fill-opacity:1"/><circle style="opacity:.3;fill:url(#radialGradient1978);fill-opacity:1" id="circle22111" cx="343.999" cy="92" r="36" rx="8.001" ry="8.001" transform="matrix(-0.429212,4.312772e-2,-0.115007,-0.160955,405.2291,113.9719)"/><path id="circle16776" d="M 247,55.97138 C 231.29055,55.97138 218.16387,67.06437 215,81.83352 C 221.30645,87.71245 233.27262,91.67967 247,91.67967 C 260.72739,91.67967 272.69355,87.71245 279,81.83352 C 275.83614,67.06437 262.70944,55.97138 247,55.97138 z" style="opacity:.8;fill:url(#linearGradient1980);fill-opacity:1"/></g><path id="path2276" d="M -106.3852,44.124126 L -106.3852,41.329417 L -106.3852,44.124126 z" style="fill:#fff;fill-opacity:.75688076;fill-rule:nonzero;stroke:none;stroke-width:.5;stroke-linecap:round;stroke-linejoin:round;stroke-miterlimit:4;stroke-dasharray:none;stroke-dashoffset:4;stroke-opacity:1"/><path id="path1990" d="M 30.05889,41.372576 L 53.078349,64.392035 L 30.05889,86.627424 L 41.372602,97.941136 L 64.000026,75.313712 L 86.62745,97.941136 L 97.941162,86.627424 L 75.313738,64 L 97.941162,41.372576 L 87.019485,30.450899 L 64.392061,53.078323 L 41.372602,30.058864 L 30.05889,41.372576 z" style="opacity:.8;fill:none;fill-opacity:1;fill-rule:evenodd;stroke:#323232;stroke-width:8;stroke-linecap:round;stroke-linejoin:round;stroke-miterlimit:4;stroke-opacity:1;stroke-dasharray:none"/><path style="fill:#fff;fill-opacity:1;fill-rule:evenodd;stroke:none;stroke-width:4;stroke-linecap:round;stroke-linejoin:round;stroke-miterlimit:4;stroke-opacity:1" id="rect3232" d="M 30.05889,41.372576 L 53.078349,64.392035 L 30.05889,86.627424 L 41.372602,97.941136 L 64.000026,75.313712 L 86.62745,97.941136 L 97.941162,86.627424 L 75.313738,64 L 97.941162,41.372576 L 87.019485,30.450899 L 64.392061,53.078323 L 41.372602,30.058864 L 30.05889,41.372576 z"/></g></svg>
