<svg xmlns="http://www.w3.org/2000/svg" xmlns:cc="http://web.resource.org/cc/" xmlns:svg="http://www.w3.org/2000/svg" xmlns:xlink="http://www.w3.org/1999/xlink" id="svg1307" width="88" height="88" version="1.0"><defs id="defs1309"><linearGradient id="linearGradient3291"><stop style="stop-color:black;stop-opacity:1" id="stop3293" offset="0"/><stop style="stop-color:black;stop-opacity:0" id="stop3295" offset="1"/></linearGradient><linearGradient id="linearGradient12049"><stop style="stop-color:#fff;stop-opacity:1" id="stop12051" offset="0"/><stop style="stop-color:#fff;stop-opacity:0" id="stop12053" offset="1"/></linearGradient><linearGradient id="linearGradient2497"><stop style="stop-color:#fff;stop-opacity:1" id="stop2499" offset="0"/><stop id="stop11148" offset=".5" style="stop-color:#ececec;stop-opacity:1"/><stop style="stop-color:#c1c1c1;stop-opacity:1" id="stop2501" offset="1"/></linearGradient><linearGradient id="linearGradient3251"><stop style="stop-color:#000;stop-opacity:1" id="stop3253" offset="0"/><stop id="stop14161" offset=".709" style="stop-color:#090909;stop-opacity:.67870039"/><stop style="stop-color:#131313;stop-opacity:0" id="stop3255" offset="1"/></linearGradient><linearGradient id="linearGradient3235"><stop style="stop-color:#fff;stop-opacity:1" id="stop3237" offset="0"/><stop style="stop-color:#fff;stop-opacity:0" id="stop3239" offset="1"/></linearGradient><linearGradient id="linearGradient3149"><stop id="stop3151" offset="0" style="stop-color:#8e8e8e;stop-opacity:1"/><stop id="stop3153" offset="1" style="stop-color:#f8f8f8;stop-opacity:1"/></linearGradient><linearGradient id="linearGradient22415" x1="1054.673" x2="-1250.66" y1="-5.566" y2="3149.028" gradientTransform="matrix(0.964922,0,0,0.941137,2.09495,7.906447)" gradientUnits="userSpaceOnUse" xlink:href="#linearGradient12049"/><linearGradient id="linearGradient22417" x1="1054.673" x2="-1250.66" y1="-5.566" y2="3149.028" gradientTransform="matrix(5.613329e-2,0,0,5.494916e-2,95.46583,-43.1294)" gradientUnits="userSpaceOnUse" xlink:href="#linearGradient12049"/><linearGradient id="linearGradient22419" x1="-2165.313" x2="-643.061" y1="2087.934" y2="1121.712" gradientTransform="matrix(5.263178e-2,0,0,5.494916e-2,95.425679,-42.65827)" gradientUnits="userSpaceOnUse" xlink:href="#linearGradient3235"/><linearGradient id="linearGradient22421" x1="605.172" x2="-1062.923" y1="3835.643" y2="1799.618" gradientTransform="matrix(5.613329e-2,0,0,5.266449e-2,95.46583,-35.606353)" gradientUnits="userSpaceOnUse" xlink:href="#linearGradient3149"/><linearGradient id="linearGradient22423" x1="88.705" x2="-356.673" y1="1010.657" y2="1234.813" gradientTransform="matrix(5.263178e-2,0,0,5.494916e-2,95.425679,-43.1294)" gradientUnits="userSpaceOnUse" xlink:href="#linearGradient3235"/><radialGradient id="radialGradient22425" cx="-519.359" cy="1724.422" r="499.359" fx="-519.359" fy="1724.422" gradientTransform="matrix(5.2631778e-2,0,0,9.760431e-2,95.425676,-122.0552)" gradientUnits="userSpaceOnUse" xlink:href="#linearGradient2497"/><linearGradient id="linearGradient6203" x1="88.705" x2="-356.673" y1="1010.657" y2="1234.813" gradientTransform="matrix(5.263178e-2,0,0,5.494916e-2,92.625681,-43.1294)" gradientUnits="userSpaceOnUse" xlink:href="#linearGradient3235"/></defs><metadata id="metadata1312"/><g id="layer1"><path id="path2276" d="M 35.066204,7.307497 L 35.066204,5.464691 L 35.066204,7.307497 z" style="fill:#fff;fill-opacity:.75688076;fill-rule:nonzero;stroke:none;stroke-width:.5;stroke-linecap:round;stroke-linejoin:round;stroke-miterlimit:4;stroke-dasharray:none;stroke-dashoffset:4;stroke-opacity:1"/><g id="g18320" transform="matrix(0.714286,0,0,0.714286,-1.714287,-5.714247)"><path style="opacity:.08196722;fill:url(#linearGradient22415);fill-opacity:1;fill-rule:evenodd;stroke:none;stroke-width:1px;stroke-linecap:butt;stroke-linejoin:miter;stroke-opacity:1" id="path12057" d="M 10.628479,8.4652472 C 8.8673095,8.5903719 8.0050972,9.6618224 8.0050972,11.406299 L 8.0050972,82.02096 C 32.521811,46.530692 55.281152,23.649512 75.73056,8.788763 L 19.282623,8.788763 L 19.282623,8.4652472 L 10.990325,8.4652472 C 10.864909,8.4652472 10.74589,8.4569056 10.628479,8.4652472 z M 119.72497,14.81792 C 83.579397,52.816092 54.569378,102.04945 43.891728,125.76385 L 116.07995,125.76385 C 118.25389,125.76385 119.99994,124.06084 119.99995,121.94048 L 119.93605,15.023794 L 119.72497,14.81792 z"/><path id="path1410" d="M 11.003129,8.0400556 C 8.9964822,8.0400556 8.0157887,9.1208673 8.0157887,10.988425 L 7.9999986,121.93277 C 7.9999986,124.06085 9.750128,125.77405 11.924069,125.77406 L 116.07588,125.77406 C 118.24982,125.77406 119.99994,124.06085 119.99995,121.93277 L 119.92103,14.623657 L 113.09906,8.0400556 L 107.9769,8.0400556 L 107.9769,8.354299 L 98.69035,8.354299 L 97.499269,10.773777 L 94.527713,10.861354 L 94.527713,8.354299 L 19.279281,8.354299 L 19.279281,8.0400556 L 11.003129,8.0400556 z" style="fill:#1c1c1c;fill-opacity:1;fill-rule:evenodd;stroke:none;stroke-width:1px;stroke-linecap:butt;stroke-linejoin:miter;stroke-opacity:1"/><path style="opacity:.2213115;fill:url(#linearGradient22417);fill-opacity:1;fill-rule:evenodd;stroke:none;stroke-width:1px;stroke-linecap:butt;stroke-linejoin:miter;stroke-opacity:1" id="path11174" d="M 11.003129,8.0400556 C 8.9964822,8.0400556 8.0157887,9.1208673 8.0157887,10.988425 L 7.9999986,121.93277 C 7.9999986,124.06085 9.750128,125.77405 11.924069,125.77406 L 116.07588,125.77406 C 118.24982,125.77406 119.99994,124.06085 119.99995,121.93277 L 119.92103,14.623657 L 113.09906,8.0400556 L 107.9769,8.0400556 L 107.9769,8.354299 L 98.69035,8.354299 L 97.499269,10.773777 L 94.527713,10.861354 L 94.527713,8.354299 L 19.279281,8.354299 L 19.279281,8.0400556 L 11.003129,8.0400556 z"/><path id="rect2296" d="M 107.99408,122.78378 L 107.99408,62.851569 C 107.99408,60.811972 106.24395,59.169994 104.07001,59.169994 L 22.997753,59.169994 C 22.963786,59.169994 22.92977,59.169197 22.896011,59.169994 C 20.769396,59.220203 19.073688,60.843841 19.073688,62.851569 L 19.073688,122.78378" style="fill:url(#linearGradient22421);fill-opacity:1;fill-rule:nonzero;stroke:#fff;stroke-width:.88860911;stroke-linecap:butt;stroke-linejoin:miter;stroke-miterlimit:4;stroke-dasharray:none;stroke-dashoffset:4;stroke-opacity:1"/><path id="rect2478" d="M 41.808705,11.471733 L 41.599985,43.969469 C 41.599997,45.833574 42.95943,47.335102 44.647697,47.335102 L 89.05451,47.199925 C 90.742788,47.199925 92.10222,45.69841 92.10222,43.834292 L 91.999965,11.43162 L 41.808705,11.471733 z M 75.199972,19.199936 L 86.399967,19.199936 L 86.399967,41.599927 L 75.199972,41.599927 L 75.199972,19.199936 z" style="fill:url(#radialGradient22425);fill-opacity:1;fill-rule:nonzero;stroke:none;stroke-width:16;stroke-linecap:butt;stroke-linejoin:miter;stroke-miterlimit:4;stroke-dasharray:none;stroke-dashoffset:4;stroke-opacity:1"/><rect style="opacity:1;fill:#000;fill-opacity:1;stroke:none;stroke-width:4;stroke-linecap:round;stroke-linejoin:round;stroke-miterlimit:4;stroke-dasharray:none;stroke-dashoffset:0;stroke-opacity:1" id="rect4174" width="67.2" height="2.8" x="30.4" y="72.4"/><rect id="rect4176" width="67.2" height="2.8" x="30.4" y="89.2" style="opacity:1;fill:#000;fill-opacity:1;stroke:none;stroke-width:4;stroke-linecap:round;stroke-linejoin:round;stroke-miterlimit:4;stroke-dasharray:none;stroke-dashoffset:0;stroke-opacity:1"/><rect style="opacity:1;fill:#000;fill-opacity:1;stroke:none;stroke-width:4;stroke-linecap:round;stroke-linejoin:round;stroke-miterlimit:4;stroke-dasharray:none;stroke-dashoffset:0;stroke-opacity:1" id="rect4178" width="67.2" height="2.8" x="30.4" y="106"/></g></g></svg>