<svg xmlns="http://www.w3.org/2000/svg" xmlns:cc="http://web.resource.org/cc/" xmlns:svg="http://www.w3.org/2000/svg" xmlns:xlink="http://www.w3.org/1999/xlink" id="Layer_1" width="88" height="88" enable-background="new 0 0 128 128" overflow="visible" version="1.0" viewBox="0 0 128 128" xml:space="preserve"><defs id="defs105"><radialGradient id="radialGradient1880" cx="63.912" cy="115.709" r="63.912" fx="63.912" fy="115.709" gradientTransform="matrix(1.001373,0,0,8.253045e-2,4.25e-5,113.1757)" gradientUnits="userSpaceOnUse" xlink:href="#linearGradient3291"/><linearGradient id="linearGradient3291"><stop style="stop-color:black;stop-opacity:1" id="stop3293" offset="0"/><stop style="stop-color:black;stop-opacity:0" id="stop3295" offset="1"/></linearGradient><linearGradient id="linearGradient18668" x1="28" x2="28" y1="57.5" y2="0" gradientUnits="userSpaceOnUse"><stop id="stop18670" offset="0" style="stop-color:#fff8a8;stop-opacity:1"/><stop id="stop18672" offset="1" style="stop-color:white;stop-opacity:0"/></linearGradient><linearGradient id="linearGradient15967" x1="28" x2="28" y1="57.5" y2="0" gradientUnits="userSpaceOnUse"><stop id="stop15969" offset="0" style="stop-color:white;stop-opacity:1"/><stop id="stop15971" offset="1" style="stop-color:white;stop-opacity:0"/></linearGradient><linearGradient id="XMLID_2_" x1="28" x2="28" y1="57.5" y2="0" gradientUnits="userSpaceOnUse"><stop style="stop-color:#ffea00" id="stop12" offset="0"/><stop style="stop-color:#fc0" id="stop14" offset="1"/></linearGradient><linearGradient id="linearGradient2391" x1="94.344" x2="86.536" y1="102.345" y2="94.537" gradientUnits="userSpaceOnUse" xlink:href="#XMLID_9_"/><linearGradient id="linearGradient2393" x1="95" x2="86.587" y1="103" y2="94.587" gradientUnits="userSpaceOnUse" xlink:href="#XMLID_10_"/><linearGradient id="linearGradient2395" x1="95" x2="87.293" y1="103" y2="95.293" gradientUnits="userSpaceOnUse" xlink:href="#XMLID_11_"/><linearGradient id="linearGradient2397" x1="96" x2="88" y1="104" y2="96" gradientUnits="userSpaceOnUse" xlink:href="#XMLID_12_"/><radialGradient id="radialGradient2465" cx="102" cy="112.305" r="139.559" gradientUnits="userSpaceOnUse" xlink:href="#XMLID_7_"/><radialGradient id="radialGradient2467" cx="102" cy="112.305" r="139.559" gradientUnits="userSpaceOnUse" xlink:href="#XMLID_8_"/><linearGradient id="linearGradient12378" x1="28" x2="28" y1="57.5" y2="0" gradientUnits="userSpaceOnUse" xlink:href="#XMLID_2_"/><linearGradient id="linearGradient14180" x1="-74.821" x2="-18.122" y1="100.824" y2="100.824" gradientUnits="userSpaceOnUse" xlink:href="#linearGradient2309"/><linearGradient id="linearGradient14189" x1="-74.821" x2="-18.122" y1="100.824" y2="100.824" gradientUnits="userSpaceOnUse" xlink:href="#linearGradient2309"/><linearGradient id="linearGradient15973" x1="27.72" x2="27.72" y1="7.881" y2="30.441" gradientTransform="translate(1.470416e-5,0)" gradientUnits="userSpaceOnUse" xlink:href="#linearGradient15967"/><linearGradient id="linearGradient15977" x1="-74.821" x2="-18.122" y1="100.824" y2="100.824" gradientUnits="userSpaceOnUse" xlink:href="#linearGradient2309"/><radialGradient id="radialGradient15986" cx="26.954" cy="31.045" r="8.968" fx="26.954" fy="31.045" gradientTransform="matrix(0.754978,-2.959381e-2,0,0.905772,7.650275,10.87807)" gradientUnits="userSpaceOnUse" xlink:href="#linearGradient15967"/><linearGradient id="linearGradient18657" x1="28" x2="28" y1="57.5" y2="0" gradientUnits="userSpaceOnUse" xlink:href="#XMLID_2_"/><linearGradient id="linearGradient18649" x1="28" x2="28" y1="57.5" y2="0" gradientUnits="userSpaceOnUse"><stop style="stop-color:#ffea00" id="stop18651" offset="0"/><stop style="stop-color:#fc0" id="stop18653" offset="1"/></linearGradient><linearGradient id="linearGradient18674" x1="-39.531" x2="-39.531" y1="78" y2="51.188" gradientUnits="userSpaceOnUse" xlink:href="#linearGradient18668"/><linearGradient id="linearGradient18746" x1="-39.531" x2="-39.531" y1="78" y2="51.188" gradientUnits="userSpaceOnUse" xlink:href="#linearGradient18668"/><radialGradient id="radialGradient1992" cx="102" cy="112.305" r="139.559" gradientTransform="matrix(0.829788,0,0,0.854545,10.89361,13.3091)" gradientUnits="userSpaceOnUse" xlink:href="#XMLID_8_"/><radialGradient id="radialGradient1995" cx="102" cy="112.305" r="139.559" gradientTransform="matrix(0.833334,0,0,0.857143,10.66666,13.14286)" gradientUnits="userSpaceOnUse" xlink:href="#XMLID_7_"/><linearGradient id="linearGradient2932" x1="96" x2="88" y1="104" y2="96" gradientTransform="matrix(0.833334,0,0,0.857143,10.66666,13.14286)" gradientUnits="userSpaceOnUse" xlink:href="#XMLID_12_"/><linearGradient id="linearGradient2935" x1="95" x2="87.293" y1="103" y2="95.293" gradientTransform="matrix(0.833334,0,0,0.857143,10.66666,13.14286)" gradientUnits="userSpaceOnUse" xlink:href="#XMLID_11_"/><linearGradient id="linearGradient2938" x1="95" x2="86.587" y1="103" y2="94.587" gradientTransform="matrix(0.833334,0,0,0.857143,10.66666,13.14286)" gradientUnits="userSpaceOnUse" xlink:href="#XMLID_10_"/><linearGradient id="linearGradient2941" x1="94.344" x2="86.536" y1="102.345" y2="94.537" gradientTransform="matrix(0.833334,0,0,0.857143,10.66666,13.14286)" gradientUnits="userSpaceOnUse" xlink:href="#XMLID_9_"/><radialGradient id="radialGradient3851" cx="102" cy="112.305" r="139.559" gradientTransform="matrix(0.833334,0,0,0.857143,10.66666,13.14286)" gradientUnits="userSpaceOnUse" xlink:href="#XMLID_7_"/><radialGradient id="radialGradient3853" cx="102" cy="112.305" r="139.559" gradientTransform="matrix(0.829788,0,0,0.854545,10.89361,13.3091)" gradientUnits="userSpaceOnUse" xlink:href="#XMLID_8_"/><linearGradient id="linearGradient3855" x1="94.344" x2="86.536" y1="102.345" y2="94.537" gradientTransform="matrix(0.833334,0,0,0.857143,10.66666,13.14286)" gradientUnits="userSpaceOnUse" xlink:href="#XMLID_9_"/><linearGradient id="linearGradient3857" x1="95" x2="86.587" y1="103" y2="94.587" gradientTransform="matrix(0.833334,0,0,0.857143,10.66666,13.14286)" gradientUnits="userSpaceOnUse" xlink:href="#XMLID_10_"/><linearGradient id="linearGradient3859" x1="95" x2="87.293" y1="103" y2="95.293" gradientTransform="matrix(0.833334,0,0,0.857143,10.66666,13.14286)" gradientUnits="userSpaceOnUse" xlink:href="#XMLID_11_"/><linearGradient id="linearGradient3861" x1="96" x2="88" y1="104" y2="96" gradientTransform="matrix(0.833334,0,0,0.857143,10.66666,13.14286)" gradientUnits="userSpaceOnUse" xlink:href="#XMLID_12_"/><radialGradient id="radialGradient3885" cx="102" cy="112.305" r="139.559" gradientTransform="matrix(0.833334,0,0,0.857143,10.66666,13.14286)" gradientUnits="userSpaceOnUse" xlink:href="#XMLID_7_"/><radialGradient id="radialGradient3887" cx="102" cy="112.305" r="139.559" gradientTransform="matrix(0.829788,0,0,0.854545,10.89361,13.3091)" gradientUnits="userSpaceOnUse" xlink:href="#XMLID_8_"/><linearGradient id="linearGradient3889" x1="94.344" x2="86.536" y1="102.345" y2="94.537" gradientTransform="matrix(0.833334,0,0,0.857143,10.66666,13.14286)" gradientUnits="userSpaceOnUse" xlink:href="#XMLID_9_"/><linearGradient id="linearGradient3891" x1="95" x2="86.587" y1="103" y2="94.587" gradientTransform="matrix(0.833334,0,0,0.857143,10.66666,13.14286)" gradientUnits="userSpaceOnUse" xlink:href="#XMLID_10_"/><linearGradient id="linearGradient3893" x1="95" x2="87.293" y1="103" y2="95.293" gradientTransform="matrix(0.833334,0,0,0.857143,10.66666,13.14286)" gradientUnits="userSpaceOnUse" xlink:href="#XMLID_11_"/><linearGradient id="linearGradient3895" x1="96" x2="88" y1="104" y2="96" gradientTransform="matrix(0.833334,0,0,0.857143,10.66666,13.14286)" gradientUnits="userSpaceOnUse" xlink:href="#XMLID_12_"/><linearGradient id="linearGradient5587" x1="96" x2="88" y1="104" y2="96" gradientTransform="matrix(0.848486,0,0,0.831169,21.33332,16.62339)" gradientUnits="userSpaceOnUse" xlink:href="#XMLID_12_"/><linearGradient id="linearGradient5590" x1="95" x2="87.293" y1="103" y2="95.293" gradientTransform="matrix(0.848486,0,0,0.831169,21.33332,16.62339)" gradientUnits="userSpaceOnUse" xlink:href="#XMLID_11_"/><linearGradient id="linearGradient5593" x1="95" x2="86.587" y1="103" y2="94.587" gradientTransform="matrix(0.848486,0,0,0.831169,21.33332,16.62339)" gradientUnits="userSpaceOnUse" xlink:href="#XMLID_10_"/><linearGradient id="linearGradient5596" x1="94.344" x2="86.536" y1="102.345" y2="94.537" gradientTransform="matrix(0.848486,0,0,0.831169,21.33332,16.62339)" gradientUnits="userSpaceOnUse" xlink:href="#XMLID_9_"/><radialGradient id="radialGradient5599" cx="102" cy="112.305" r="139.559" gradientTransform="matrix(0.835591,0,0,0.819834,22.1586,17.34877)" gradientUnits="userSpaceOnUse" xlink:href="#XMLID_8_"/><radialGradient id="radialGradient5602" cx="102" cy="112.305" r="139.559" gradientTransform="matrix(0.848486,0,0,0.831169,21.33332,16.62339)" gradientUnits="userSpaceOnUse" xlink:href="#XMLID_7_"/><radialGradient id="radialGradient8312" cx="102" cy="112.305" r="139.559" gradientTransform="matrix(0.848486,0,0,0.831169,21.33332,16.62339)" gradientUnits="userSpaceOnUse" xlink:href="#XMLID_7_"/><radialGradient id="radialGradient8314" cx="102" cy="112.305" r="139.559" gradientTransform="matrix(0.835591,0,0,0.819834,22.1586,17.34877)" gradientUnits="userSpaceOnUse" xlink:href="#XMLID_8_"/><linearGradient id="linearGradient8316" x1="94.344" x2="86.536" y1="102.345" y2="94.537" gradientTransform="matrix(0.848486,0,0,0.831169,21.33332,16.62339)" gradientUnits="userSpaceOnUse" xlink:href="#XMLID_9_"/><linearGradient id="linearGradient8318" x1="95" x2="86.587" y1="103" y2="94.587" gradientTransform="matrix(0.848486,0,0,0.831169,21.33332,16.62339)" gradientUnits="userSpaceOnUse" xlink:href="#XMLID_10_"/><linearGradient id="linearGradient8320" x1="95" x2="87.293" y1="103" y2="95.293" gradientTransform="matrix(0.848486,0,0,0.831169,21.33332,16.62339)" gradientUnits="userSpaceOnUse" xlink:href="#XMLID_11_"/><linearGradient id="linearGradient8322" x1="96" x2="88" y1="104" y2="96" gradientTransform="matrix(0.848486,0,0,0.831169,21.33332,16.62339)" gradientUnits="userSpaceOnUse" xlink:href="#XMLID_12_"/></defs><metadata id="metadata3"/><radialGradient id="XMLID_7_" cx="102" cy="112.305" r="139.559" gradientUnits="userSpaceOnUse"><stop style="stop-color:#00537d" id="stop16" offset="0"/><stop style="stop-color:#186389" id="stop18" offset=".015"/><stop style="stop-color:#558ca8" id="stop20" offset=".056"/><stop style="stop-color:#89afc3" id="stop22" offset=".096"/><stop style="stop-color:#b3ccd8" id="stop24" offset=".136"/><stop style="stop-color:#d4e2e9" id="stop26" offset=".174"/><stop style="stop-color:#ecf2f5" id="stop28" offset=".21"/><stop style="stop-color:#fafcfd" id="stop30" offset=".243"/><stop style="stop-color:#fff" id="stop32" offset=".272"/></radialGradient><radialGradient id="XMLID_8_" cx="102" cy="112.305" r="139.559" gradientUnits="userSpaceOnUse"><stop style="stop-color:#535557" id="stop37" offset="0"/><stop style="stop-color:#898a8c" id="stop41" offset=".114"/><stop style="stop-color:#ececec" id="stop47" offset=".203"/><stop style="stop-color:#fafafa" id="stop49" offset=".236"/><stop style="stop-color:#fff" id="stop51" offset=".272"/><stop style="stop-color:#fafafa" id="stop53" offset=".531"/><stop style="stop-color:#ebecec" id="stop55" offset=".845"/><stop style="stop-color:#e1e2e3" id="stop57" offset="1"/></radialGradient><linearGradient id="XMLID_9_" x1="94.344" x2="86.536" y1="102.345" y2="94.537" gradientUnits="userSpaceOnUse"><stop style="stop-color:#fff" id="stop62" offset="0"/><stop style="stop-color:#555753" id="stop64" offset="1"/></linearGradient><linearGradient id="XMLID_10_" x1="95" x2="86.587" y1="103" y2="94.587" gradientUnits="userSpaceOnUse"><stop style="stop-color:#fff" id="stop69" offset="0"/><stop style="stop-color:#555753" id="stop71" offset="1"/></linearGradient><linearGradient id="XMLID_11_" x1="95" x2="87.293" y1="103" y2="95.293" gradientUnits="userSpaceOnUse"><stop style="stop-color:#fff" id="stop76" offset="0"/><stop style="stop-color:#393b38" id="stop78" offset="1"/></linearGradient><linearGradient id="XMLID_12_" x1="96" x2="88" y1="104" y2="96" gradientUnits="userSpaceOnUse"><stop style="stop-color:#888a85" id="stop83" offset="0"/><stop style="stop-color:#8c8e89" id="stop85" offset=".007"/><stop style="stop-color:#abaca9" id="stop87" offset=".067"/><stop style="stop-color:#c5c6c4" id="stop89" offset=".135"/><stop style="stop-color:#dbdbda" id="stop91" offset=".211"/><stop style="stop-color:#ebebeb" id="stop93" offset=".301"/><stop style="stop-color:#f7f7f6" id="stop95" offset=".412"/><stop style="stop-color:#fdfdfd" id="stop97" offset=".568"/><stop style="stop-color:#fff" id="stop99" offset="1"/></linearGradient><path id="path4416" d="M 127.99994,122.72528 C 127.99994,125.63843 99.346193,128 64.000012,128 C 28.653812,128 5.75e-05,125.63843 5.75e-05,122.72528 C 5.75e-05,119.81215 28.653812,117.45058 64.000012,117.45058 C 99.346193,117.45058 127.99994,119.81215 127.99994,122.72528 L 127.99994,122.72528 z" style="opacity:.38139535;fill:url(#radialGradient1880);fill-opacity:1;fill-rule:nonzero;stroke:none;stroke-width:0;stroke-linecap:round;stroke-linejoin:round;stroke-miterlimit:4;stroke-dasharray:none;stroke-dashoffset:4;stroke-opacity:1"/><g id="g8290" transform="translate(-23.27272,-17.45454)"><path id="path8292" d="M 24,16 L 24,78.84375 C 24,79.47461 24.51225,80 25.15625,80 L 59.6875,80 C 59.996669,80.000003 60.28125,79.87053 60.5,79.65625 C 60.499998,79.656252 67.447919,73.986608 70.65625,70.84375 C 73.864585,67.700892 79.65625,60.90625 79.65625,60.90625 C 79.874997,60.691963 80,60.396606 80,60.09375 L 80,16 L 24,16 z" transform="scale(1.454545,1.454545)" style="opacity:.1;fill:none;stroke:#000;stroke-width:8.00000286;stroke-linejoin:round;stroke-miterlimit:4;stroke-dasharray:none;stroke-opacity:1"/><path style="opacity:.25;fill:none;stroke:#000;stroke-width:2.00000072;stroke-linejoin:round;stroke-miterlimit:4;stroke-dasharray:none;stroke-opacity:1" id="path8294" d="M 24,16 L 24,78.84375 C 24,79.47461 24.51225,80 25.15625,80 L 59.6875,80 C 59.996669,80.000003 60.28125,79.87053 60.5,79.65625 C 60.499998,79.656252 67.447919,73.986608 70.65625,70.84375 C 73.864585,67.700892 79.65625,60.90625 79.65625,60.90625 C 79.874997,60.691963 80,60.396606 80,60.09375 L 80,16 L 24,16 z" transform="scale(1.454545,1.454545)"/><path style="opacity:.15;fill:none;stroke:#000;stroke-width:6.00000191;stroke-linejoin:round;stroke-miterlimit:4;stroke-dasharray:none;stroke-opacity:1" id="path8296" d="M 24,16 L 24,78.84375 C 24,79.47461 24.51225,80 25.15625,80 L 59.6875,80 C 59.996669,80.000003 60.28125,79.87053 60.5,79.65625 C 60.499998,79.656252 67.447919,73.986608 70.65625,70.84375 C 73.864585,67.700892 79.65625,60.90625 79.65625,60.90625 C 79.874997,60.691963 80,60.396606 80,60.09375 L 80,16 L 24,16 z" transform="scale(1.454545,1.454545)"/><path id="path8298" d="M 24,16 L 24,78.84375 C 24,79.47461 24.51225,80 25.15625,80 L 59.6875,80 C 59.996669,80.000003 60.28125,79.87053 60.5,79.65625 C 60.499998,79.656252 67.447919,73.986608 70.65625,70.84375 C 73.864585,67.700892 79.65625,60.90625 79.65625,60.90625 C 79.874997,60.691963 80,60.396606 80,60.09375 L 80,16 L 24,16 z" transform="scale(1.454545,1.454545)" style="opacity:.2;fill:none;stroke:#000;stroke-width:4.00000143;stroke-linejoin:round;stroke-miterlimit:4;stroke-dasharray:none;stroke-opacity:1"/><path style="fill:url(#radialGradient8312)" id="path8300" d="M 34.909091,23.272731 L 34.909091,114.70131 C 34.909091,115.61892 35.669334,116.36364 36.606061,116.36364 L 86.812608,116.36364 C 87.262306,116.36364 87.694184,116.18825 88.012366,115.87657 L 115.86643,88.590962 C 116.18461,88.279274 116.36364,87.856208 116.36364,87.41569 L 116.36364,23.272731 L 34.909091,23.272731 z"/><path style="fill:url(#radialGradient8314);fill-opacity:1" id="path8302" d="M 37.199227,24.727273 C 36.738816,24.727273 36.363636,25.095378 36.363636,25.547107 L 36.363636,114.08927 C 36.363636,114.54181 36.738816,114.90909 37.199227,114.90909 L 86.642757,114.90909 C 86.862518,114.90909 87.0781,114.82219 87.233519,114.66888 L 114.66428,87.755345 C 114.82051,87.602034 114.90909,87.391336 114.90909,87.17572 L 114.90909,25.547107 C 114.90909,25.095378 114.53475,24.727273 114.07351,24.727273 L 37.199227,24.727273 z"/><path id="path8304" d="M 115.86649,88.590976 C 116.07861,88.383184 100.27218,93.922095 96.000053,93.922095 C 94.596658,93.922095 93.454596,95.040847 93.454596,96.415601 C 93.454596,100.60054 87.800288,116.08438 88.01241,115.87659 L 115.86649,88.590976 z" style="opacity:.1;fill:url(#linearGradient8316)"/><path id="path8306" d="M 115.86649,88.590976 C 116.18467,88.279289 104.01315,94.753262 96.000053,94.753262 C 95.064174,94.753262 94.303082,95.498822 94.303082,96.415601 C 94.303082,104.26516 87.694228,116.18827 88.01241,115.87659 L 115.86649,88.590976 z" style="opacity:.1;fill:url(#linearGradient8318)"/><path id="path8308" d="M 115.86649,88.590976 C 116.06928,88.392328 104.32116,95.584432 96.000053,95.584432 C 95.53084,95.584432 95.151568,95.955965 95.151568,96.415601 C 95.151568,104.56688 87.809622,116.07524 88.01241,115.87659 L 115.86649,88.590976 z" style="opacity:.1;fill:url(#linearGradient8320)"/><path id="path8310" d="M 88.01241,115.87659 C 88.01241,115.87659 98.121267,107.63638 102.78793,103.06495 C 107.4546,98.493523 115.86649,88.590976 115.86649,88.590976 C 115.86649,88.590976 104.69702,96.415601 96.000053,96.415601 C 96.000053,104.93508 88.01241,115.87659 88.01241,115.87659 z" style="fill:url(#linearGradient8322)"/></g><g id="g8278" transform="translate(0,-5.818182)"><path style="opacity:.1;fill:none;stroke:#000;stroke-width:8.00000286;stroke-linejoin:round;stroke-miterlimit:4;stroke-dasharray:none;stroke-opacity:1" id="path8276" d="M 24,16 L 24,78.84375 C 24,79.47461 24.51225,80 25.15625,80 L 59.6875,80 C 59.996669,80.000003 60.28125,79.87053 60.5,79.65625 C 60.499998,79.656252 67.447919,73.986608 70.65625,70.84375 C 73.864585,67.700892 79.65625,60.90625 79.65625,60.90625 C 79.874997,60.691963 80,60.396606 80,60.09375 L 80,16 L 24,16 z" transform="scale(1.454545,1.454545)"/><path id="path6495" d="M 24,16 L 24,78.84375 C 24,79.47461 24.51225,80 25.15625,80 L 59.6875,80 C 59.996669,80.000003 60.28125,79.87053 60.5,79.65625 C 60.499998,79.656252 67.447919,73.986608 70.65625,70.84375 C 73.864585,67.700892 79.65625,60.90625 79.65625,60.90625 C 79.874997,60.691963 80,60.396606 80,60.09375 L 80,16 L 24,16 z" transform="scale(1.454545,1.454545)" style="opacity:.25;fill:none;stroke:#000;stroke-width:2.00000072;stroke-linejoin:round;stroke-miterlimit:4;stroke-dasharray:none;stroke-opacity:1"/><path id="path8274" d="M 24,16 L 24,78.84375 C 24,79.47461 24.51225,80 25.15625,80 L 59.6875,80 C 59.996669,80.000003 60.28125,79.87053 60.5,79.65625 C 60.499998,79.656252 67.447919,73.986608 70.65625,70.84375 C 73.864585,67.700892 79.65625,60.90625 79.65625,60.90625 C 79.874997,60.691963 80,60.396606 80,60.09375 L 80,16 L 24,16 z" transform="scale(1.454545,1.454545)" style="opacity:.15;fill:none;stroke:#000;stroke-width:6.00000191;stroke-linejoin:round;stroke-miterlimit:4;stroke-dasharray:none;stroke-opacity:1"/><path style="opacity:.2;fill:none;stroke:#000;stroke-width:4.00000143;stroke-linejoin:round;stroke-miterlimit:4;stroke-dasharray:none;stroke-opacity:1" id="path7387" d="M 24,16 L 24,78.84375 C 24,79.47461 24.51225,80 25.15625,80 L 59.6875,80 C 59.996669,80.000003 60.28125,79.87053 60.5,79.65625 C 60.499998,79.656252 67.447919,73.986608 70.65625,70.84375 C 73.864585,67.700892 79.65625,60.90625 79.65625,60.90625 C 79.874997,60.691963 80,60.396606 80,60.09375 L 80,16 L 24,16 z" transform="scale(1.454545,1.454545)"/><path id="path34" d="M 34.909091,23.272731 L 34.909091,114.70131 C 34.909091,115.61892 35.669334,116.36364 36.606061,116.36364 L 86.812608,116.36364 C 87.262306,116.36364 87.694184,116.18825 88.012366,115.87657 L 115.86643,88.590962 C 116.18461,88.279274 116.36364,87.856208 116.36364,87.41569 L 116.36364,23.272731 L 34.909091,23.272731 z" style="fill:url(#radialGradient5602)"/><path id="path59" d="M 37.199227,24.727273 C 36.738816,24.727273 36.363636,25.095378 36.363636,25.547107 L 36.363636,114.08927 C 36.363636,114.54181 36.738816,114.90909 37.199227,114.90909 L 86.642757,114.90909 C 86.862518,114.90909 87.0781,114.82219 87.233519,114.66888 L 114.66428,87.755345 C 114.82051,87.602034 114.90909,87.391336 114.90909,87.17572 L 114.90909,25.547107 C 114.90909,25.095378 114.53475,24.727273 114.07351,24.727273 L 37.199227,24.727273 z" style="fill:url(#radialGradient5599);fill-opacity:1"/><path style="opacity:.1;fill:url(#linearGradient5596)" id="path66" d="M 115.86649,88.590976 C 116.07861,88.383184 100.27218,93.922095 96.000053,93.922095 C 94.596658,93.922095 93.454596,95.040847 93.454596,96.415601 C 93.454596,100.60054 87.800288,116.08438 88.01241,115.87659 L 115.86649,88.590976 z"/><path style="opacity:.1;fill:url(#linearGradient5593)" id="path73" d="M 115.86649,88.590976 C 116.18467,88.279289 104.01315,94.753262 96.000053,94.753262 C 95.064174,94.753262 94.303082,95.498822 94.303082,96.415601 C 94.303082,104.26516 87.694228,116.18827 88.01241,115.87659 L 115.86649,88.590976 z"/><path style="opacity:.1;fill:url(#linearGradient5590)" id="path80" d="M 115.86649,88.590976 C 116.06928,88.392328 104.32116,95.584432 96.000053,95.584432 C 95.53084,95.584432 95.151568,95.955965 95.151568,96.415601 C 95.151568,104.56688 87.809622,116.07524 88.01241,115.87659 L 115.86649,88.590976 z"/><path style="fill:url(#linearGradient5587)" id="path101" d="M 88.01241,115.87659 C 88.01241,115.87659 98.121267,107.63638 102.78793,103.06495 C 107.4546,98.493523 115.86649,88.590976 115.86649,88.590976 C 115.86649,88.590976 104.69702,96.415601 96.000053,96.415601 C 96.000053,104.93508 88.01241,115.87659 88.01241,115.87659 z"/></g></svg>