<svg xmlns="http://www.w3.org/2000/svg" xmlns:cc="http://web.resource.org/cc/" xmlns:svg="http://www.w3.org/2000/svg" xmlns:xlink="http://www.w3.org/1999/xlink" id="svg2606" width="128" height="128" version="1.0"><defs id="defs2608"><linearGradient id="linearGradient3894" x1="54.103" x2="32.584" y1="32.58" y2="31.296" gradientTransform="matrix(0.6736273,0,0,0.6880491,42.39699,15.073568)" gradientUnits="userSpaceOnUse" xlink:href="#XMLID_9_"/><radialGradient id="XMLID_14_" cx="54.212" cy="18.09" r="26.416" gradientUnits="userSpaceOnUse"><stop style="stop-color:#f0ff80;stop-opacity:1" id="stop74" offset=".331"/><stop style="stop-color:#0f0;stop-opacity:0" id="stop3926" offset=".674"/></radialGradient><radialGradient id="radialGradient3885" cx="54.212" cy="18.09" r="26.416" gradientTransform="matrix(0.624346,0,0,0.624346,45.032334,16.880096)" gradientUnits="userSpaceOnUse" xlink:href="#XMLID_14_"/><linearGradient id="linearGradient8528"><stop style="stop-color:#888;stop-opacity:.39215687" id="stop8530" offset="0"/><stop id="stop8540" offset=".5" style="stop-color:#888;stop-opacity:1"/><stop style="stop-color:#888;stop-opacity:.39215687" id="stop8532" offset="1"/></linearGradient><radialGradient id="XMLID_11_" cx="60" cy="25" r="66" gradientUnits="userSpaceOnUse"><stop id="stop7985" offset="0" style="stop-color:#77de6c"/><stop id="stop7987" offset="1" style="stop-color:#0a8000"/></radialGradient><radialGradient style="fill-opacity:1;fill:url(#linearGradient6728)" id="radialGradient4397" cx="23.784" cy="100" r="25.195" gradientUnits="userSpaceOnUse"><stop style="stop-color:#2eb800;stop-opacity:1" id="stop4401" offset="0"/><stop id="stop4403" offset="1" style="stop-color:#003a00;stop-opacity:1"/></radialGradient><filter id="filter3619"><feGaussianBlur id="feGaussianBlur3621" stdDeviation=".699"/></filter><linearGradient id="linearGradient5332" x1="62.246" x2="52.913" y1="8.616" y2="19.95" gradientUnits="userSpaceOnUse"><stop id="stop5334" offset="0" style="stop-color:#000;stop-opacity:0"/><stop id="stop5336" offset="1" style="stop-color:#07631a;stop-opacity:1"/></linearGradient><filter id="filter2844" width="1.147" height="1.278" x="-.073" y="-.139"><feGaussianBlur id="feGaussianBlur2846" stdDeviation=".732"/></filter><linearGradient id="linearGradient2848"><stop style="stop-color:#c3ff6a;stop-opacity:1" id="stop2850" offset="0"/><stop style="stop-color:#a6ff88;stop-opacity:0" id="stop2852" offset="1"/></linearGradient><filter id="filter5558"><feGaussianBlur id="feGaussianBlur5560" stdDeviation=".61"/></filter><radialGradient id="radialGradient4531" cx="19.784" cy="94" r="14" fx="17.117" fy="88.667" gradientUnits="userSpaceOnUse"><stop id="stop4533" offset="0" style="stop-color:#fff;stop-opacity:1"/><stop style="stop-color:#fff;stop-opacity:.70886075" id="stop4537" offset=".5"/><stop id="stop4535" offset="1" style="stop-color:#fff;stop-opacity:0"/></radialGradient><filter id="filter6116" width="1.245" height="1.355" x="-.123" y="-.178"><feGaussianBlur id="feGaussianBlur6118" stdDeviation="2.037"/></filter><linearGradient id="linearGradient4540"><stop style="stop-color:#080;stop-opacity:1" id="stop4542" offset="0"/><stop style="stop-color:#0aa800;stop-opacity:.60759491" id="stop4544" offset="1"/></linearGradient><radialGradient id="XMLID_10_" cx="23.784" cy="100" r="25.195" gradientUnits="userSpaceOnUse" style="fill-opacity:1;fill:url(#linearGradient6728)"><stop style="stop-color:#287f00;stop-opacity:1" id="stop35" offset="0"/><stop id="stop9094" offset=".5" style="stop-color:#3cf000;stop-opacity:1"/><stop style="stop-color:#003a00;stop-opacity:1" id="stop43" offset="1"/></radialGradient><filter id="filter5551" width="2.118" height="1.025" x="-.559" y="-.012"><feGaussianBlur id="feGaussianBlur5553" stdDeviation=".466"/></filter><linearGradient id="linearGradient4390"><stop style="stop-color:#00a208;stop-opacity:1" id="stop4392" offset="0"/><stop id="stop4398" offset=".5" style="stop-color:#dfffa8;stop-opacity:1"/><stop style="stop-color:#8aff47;stop-opacity:.63291138" id="stop4394" offset="1"/></linearGradient><linearGradient id="XMLID_9_" x1="40.117" x2="48.117" y1="49" y2="49" gradientUnits="userSpaceOnUse"><stop style="stop-color:#008e00;stop-opacity:1" id="stop16" offset="0"/><stop style="stop-color:#008700" id="stop18" offset=".229"/><stop style="stop-color:#007800" id="stop20" offset=".513"/><stop style="stop-color:#005f00" id="stop22" offset=".823"/><stop style="stop-color:#004d00" id="stop24" offset="1"/></linearGradient><linearGradient id="XMLID_13_" x1="62.246" x2="52.913" y1="8.616" y2="19.95" gradientUnits="userSpaceOnUse"><stop style="stop-color:#000;stop-opacity:1" id="stop88" offset="0"/><stop style="stop-color:#000;stop-opacity:0" id="stop104" offset="1"/></linearGradient><linearGradient id="linearGradient10207"><stop style="stop-color:#a2a2a2;stop-opacity:1" id="stop10209" offset="0"/><stop style="stop-color:#fff;stop-opacity:1" id="stop10211" offset="1"/></linearGradient><linearGradient id="XMLID_12_" x1="96" x2="88" y1="104" y2="96" gradientUnits="userSpaceOnUse"><stop style="stop-color:#888a85" id="stop83" offset="0"/><stop style="stop-color:#8c8e89" id="stop85" offset=".007"/><stop style="stop-color:#abaca9" id="stop87" offset=".067"/><stop style="stop-color:#c5c6c4" id="stop89" offset=".135"/><stop style="stop-color:#dbdbda" id="stop91" offset=".265"/><stop style="stop-color:#ebebeb" id="stop93" offset=".376"/><stop style="stop-color:#f7f7f6" id="stop95" offset=".487"/><stop style="stop-color:#fdfdfd" id="stop97" offset=".632"/><stop style="stop-color:#fff" id="stop99" offset="1"/></linearGradient><radialGradient id="XMLID_8_" cx="102" cy="112.305" r="139.559" gradientUnits="userSpaceOnUse"><stop style="stop-color:#b7b8b9;stop-opacity:1" id="stop41" offset="0"/><stop style="stop-color:#ececec" id="stop47" offset=".189"/><stop style="stop-color:#fafafa" id="stop49" offset=".257"/><stop style="stop-color:#fff" id="stop51" offset=".301"/><stop style="stop-color:#fafafa" id="stop53" offset=".531"/><stop style="stop-color:#ebecec" id="stop55" offset=".845"/><stop style="stop-color:#e1e2e3" id="stop57" offset="1"/></radialGradient><filter id="filter6697" width="1.384" height="1.384" x="-.192" y="-.192"><feGaussianBlur id="feGaussianBlur6699" stdDeviation="1.945"/></filter><clipPath id="clipPath7084" clipPathUnits="userSpaceOnUse"><path style="fill:#000;fill-opacity:1;fill-rule:evenodd;stroke:none;stroke-width:1px;stroke-linecap:butt;stroke-linejoin:miter;stroke-opacity:1" id="path7086" d="M 72,88 L 40,120 L 32,120 L 32,80 L 72,80 L 72,88 z"/></clipPath><radialGradient id="radialGradient9437" cx="102" cy="112.305" r="139.559" gradientTransform="matrix(1,0,0,0.9996653,2e-6,3.0160848e-3)" gradientUnits="userSpaceOnUse" xlink:href="#XMLID_8_"/><linearGradient id="linearGradient10213" x1="98.617" x2="91.229" y1="106.414" y2="99.255" gradientUnits="userSpaceOnUse" xlink:href="#linearGradient10207"/><filter id="filter2770"><feGaussianBlur id="feGaussianBlur2772" stdDeviation="2.079"/></filter><radialGradient id="radialGradient7858" cx="45.432" cy="111.206" r="33.764" fx="45.432" fy="111.206" gradientTransform="matrix(1,0,0,0.2670157,0,81.512404)" gradientUnits="userSpaceOnUse" xlink:href="#XMLID_13_"/><linearGradient id="linearGradient7860" x1="40.117" x2="48.117" y1="49" y2="49" gradientUnits="userSpaceOnUse" xlink:href="#XMLID_9_"/><linearGradient id="linearGradient7862" x1="44.143" x2="44.143" y1="3.493" y2="94.157" gradientUnits="userSpaceOnUse" xlink:href="#linearGradient4390"/><linearGradient id="linearGradient7864" x1="44.117" x2="44.117" y1="88.249" y2="83.653" gradientTransform="matrix(1,0,0,0.9999508,19.75779,0)" gradientUnits="userSpaceOnUse" xlink:href="#XMLID_13_"/><linearGradient id="linearGradient7866" x1=".117" x2="43.927" y1="101" y2="92.5" gradientTransform="matrix(1,0,0,0.8419836,19.882588,18.956994)" gradientUnits="userSpaceOnUse" xlink:href="#XMLID_10_"/><linearGradient id="linearGradient7868" x1="3.989" x2="43.874" y1="100.013" y2="100.013" gradientUnits="userSpaceOnUse" xlink:href="#linearGradient4540"/><radialGradient id="radialGradient7870" cx="22.502" cy="91.357" r="14" fx="19.835" fy="86.024" gradientTransform="matrix(0.6862309,-0.2788753,0.2607269,0.6833644,-6.7420546e-2,33.863485)" gradientUnits="userSpaceOnUse" xlink:href="#radialGradient4531"/><radialGradient id="radialGradient7872" cx="27.127" cy="113.894" r="11.99" fx="27.127" fy="113.894" gradientTransform="matrix(1,-2.6486575e-2,1.3961697e-2,0.5271235,18.16764,52.58348)" gradientUnits="userSpaceOnUse" xlink:href="#linearGradient2848"/><linearGradient id="linearGradient7874" x1="22.025" x2="21.786" y1="29.212" y2="7.973" gradientTransform="matrix(1,0,0,-1,39.75779,128)" gradientUnits="userSpaceOnUse" xlink:href="#linearGradient5332"/><linearGradient id="linearGradient7876" x1="92.25" x2="68" y1="8.498" y2="15.501" gradientTransform="scale(1,0.9999508)" gradientUnits="userSpaceOnUse" xlink:href="#radialGradient4397"/><linearGradient id="linearGradient7878" x1="80.966" x2="76.377" y1="4.833" y2="14.052" gradientTransform="matrix(0.962555,0,0,0.95911,3.8148459,-0.5857864)" gradientUnits="userSpaceOnUse" xlink:href="#linearGradient2848"/><linearGradient id="linearGradient8534" x1="83.806" x2="83.806" y1="33.289" y2="92.312" gradientUnits="userSpaceOnUse" xlink:href="#linearGradient8528"/><linearGradient id="linearGradient8536" x1="83.806" x2="83.806" y1="33.289" y2="92.312" gradientUnits="userSpaceOnUse" xlink:href="#linearGradient8528"/><linearGradient id="linearGradient8538" x1="83.806" x2="83.806" y1="33.289" y2="92.312" gradientUnits="userSpaceOnUse" xlink:href="#linearGradient8528"/><linearGradient id="linearGradient8559" x1="83.806" x2="83.806" y1="33.289" y2="92.312" gradientUnits="userSpaceOnUse" xlink:href="#linearGradient8528"/><linearGradient id="linearGradient8561" x1="83.806" x2="83.806" y1="33.289" y2="92.312" gradientUnits="userSpaceOnUse" xlink:href="#linearGradient8528"/><linearGradient id="linearGradient8563" x1="83.806" x2="83.806" y1="33.289" y2="92.312" gradientUnits="userSpaceOnUse" xlink:href="#linearGradient8528"/><linearGradient id="linearGradient8565" x1="83.806" x2="83.806" y1="33.289" y2="92.312" gradientUnits="userSpaceOnUse" xlink:href="#linearGradient8528"/><linearGradient id="linearGradient8567" x1="83.806" x2="83.806" y1="33.289" y2="92.312" gradientUnits="userSpaceOnUse" xlink:href="#linearGradient8528"/><linearGradient id="linearGradient8569" x1="83.806" x2="83.806" y1="33.289" y2="92.312" gradientUnits="userSpaceOnUse" xlink:href="#linearGradient8528"/><linearGradient id="linearGradient8603" x1="83.806" x2="83.806" y1="33.289" y2="92.312" gradientUnits="userSpaceOnUse" xlink:href="#linearGradient8528"/><linearGradient id="linearGradient8605" x1="83.806" x2="83.806" y1="33.289" y2="92.312" gradientUnits="userSpaceOnUse" xlink:href="#linearGradient8528"/><linearGradient id="linearGradient8607" x1="83.806" x2="83.806" y1="33.289" y2="92.312" gradientUnits="userSpaceOnUse" xlink:href="#linearGradient8528"/><linearGradient id="linearGradient8609" x1="83.806" x2="83.806" y1="33.289" y2="92.312" gradientUnits="userSpaceOnUse" xlink:href="#linearGradient8528"/><linearGradient id="linearGradient8611" x1="83.806" x2="83.806" y1="33.289" y2="92.312" gradientUnits="userSpaceOnUse" xlink:href="#linearGradient8528"/><linearGradient id="linearGradient8613" x1="83.806" x2="83.806" y1="33.289" y2="92.312" gradientUnits="userSpaceOnUse" xlink:href="#linearGradient8528"/><linearGradient id="linearGradient9414" x1="40.117" x2="48.117" y1="49" y2="49" gradientUnits="userSpaceOnUse" xlink:href="#XMLID_9_"/><linearGradient id="linearGradient9416" x1="44.143" x2="44.143" y1="3.493" y2="94.157" gradientUnits="userSpaceOnUse" xlink:href="#linearGradient4390"/><linearGradient id="linearGradient9418" x1="44.117" x2="44.117" y1="88.249" y2="83.653" gradientTransform="matrix(1,0,0,0.9999508,19.75779,0)" gradientUnits="userSpaceOnUse" xlink:href="#XMLID_13_"/><linearGradient id="linearGradient9420" x1=".117" x2="43.927" y1="101" y2="92.5" gradientTransform="matrix(1,0,0,0.8419836,19.882588,18.956994)" gradientUnits="userSpaceOnUse" xlink:href="#XMLID_10_"/><linearGradient id="linearGradient9422" x1="3.989" x2="43.874" y1="100.013" y2="100.013" gradientUnits="userSpaceOnUse" xlink:href="#linearGradient4540"/><radialGradient id="radialGradient9424" cx="22.502" cy="91.357" r="14" fx="19.835" fy="86.024" gradientTransform="matrix(0.6862309,-0.2788753,0.2607269,0.6833644,-6.7420546e-2,33.863485)" gradientUnits="userSpaceOnUse" xlink:href="#radialGradient4531"/><radialGradient id="radialGradient9426" cx="27.127" cy="113.894" r="11.99" fx="27.127" fy="113.894" gradientTransform="matrix(1,-2.6486575e-2,1.3961697e-2,0.5271235,18.16764,52.58348)" gradientUnits="userSpaceOnUse" xlink:href="#linearGradient2848"/><linearGradient id="linearGradient9428" x1="22.025" x2="21.786" y1="29.212" y2="7.973" gradientTransform="matrix(1,0,0,-1,39.75779,128)" gradientUnits="userSpaceOnUse" xlink:href="#linearGradient5332"/><linearGradient id="linearGradient9430" x1="92.25" x2="68" y1="8.498" y2="15.501" gradientTransform="scale(1,0.9999508)" gradientUnits="userSpaceOnUse" xlink:href="#radialGradient4397"/><linearGradient id="linearGradient9433" x1="92.25" x2="68" y1="8.498" y2="15.501" gradientTransform="matrix(0.64,0,0,0.6451296,24.32,20.000001)" gradientUnits="userSpaceOnUse" xlink:href="#radialGradient4397"/><linearGradient id="linearGradient9440" x1=".117" x2="43.927" y1="101" y2="92.5" gradientTransform="matrix(0.6433337,0,0,0.5432152,37.044465,32.23032)" gradientUnits="userSpaceOnUse" xlink:href="#XMLID_10_"/><linearGradient id="linearGradient9443" x1="44.117" x2="44.117" y1="88.249" y2="83.653" gradientTransform="matrix(0.64,0,0,0.6451296,36.964986,20.000001)" gradientUnits="userSpaceOnUse" xlink:href="#XMLID_13_"/><linearGradient id="linearGradient9447" x1="40.117" x2="48.117" y1="49" y2="49" gradientTransform="matrix(0.64,0,0,0.6451296,37.04512,20.000001)" gradientUnits="userSpaceOnUse" xlink:href="#XMLID_9_"/><radialGradient id="radialGradient10249" cx="45.432" cy="111.206" r="33.764" fx="45.432" fy="111.206" gradientTransform="matrix(1,0,0,0.2670157,0,81.512404)" gradientUnits="userSpaceOnUse" xlink:href="#XMLID_13_"/><linearGradient id="linearGradient10253" x1="44.143" x2="44.143" y1="3.493" y2="94.157" gradientUnits="userSpaceOnUse" xlink:href="#linearGradient4390"/><linearGradient id="linearGradient3910" x1="44.117" x2="44.117" y1="88.249" y2="83.653" gradientTransform="matrix(0.4999999,0,0,0.5990894,43.9415,23.614063)" gradientUnits="userSpaceOnUse" xlink:href="#XMLID_13_"/><linearGradient id="linearGradient3914" x1="40.117" x2="48.117" y1="49" y2="49" gradientTransform="matrix(0.4848485,0,0,0.6314195,44.549334,20.000001)" gradientUnits="userSpaceOnUse" xlink:href="#XMLID_9_"/><linearGradient id="linearGradient4914" x1=".117" x2="43.927" y1="101" y2="92.5" gradientTransform="matrix(0.6433337,0,0,0.5432152,37.044465,32.23032)" gradientUnits="userSpaceOnUse" xlink:href="#XMLID_10_"/><linearGradient id="linearGradient4916" x1="3.989" x2="43.874" y1="100.013" y2="100.013" gradientUnits="userSpaceOnUse" xlink:href="#linearGradient4540"/><radialGradient id="radialGradient4918" cx="22.502" cy="91.357" r="14" fx="19.835" fy="86.024" gradientTransform="matrix(0.6862309,-0.2788753,0.2607269,0.6833644,-6.7420546e-2,33.863485)" gradientUnits="userSpaceOnUse" xlink:href="#radialGradient4531"/><radialGradient id="radialGradient4920" cx="27.127" cy="113.894" r="11.99" fx="27.127" fy="113.894" gradientTransform="matrix(1,-2.6486575e-2,1.3961697e-2,0.5271235,18.16764,52.58348)" gradientUnits="userSpaceOnUse" xlink:href="#linearGradient2848"/><linearGradient id="linearGradient4922" x1="22.025" x2="21.786" y1="29.212" y2="7.973" gradientTransform="matrix(1,0,0,-1,39.75779,128)" gradientUnits="userSpaceOnUse" xlink:href="#linearGradient5332"/><filter id="filter6448"><feGaussianBlur id="feGaussianBlur6450" stdDeviation=".37"/></filter></defs><metadata id="metadata2611"/><g id="layer1"><path style="opacity:.5;fill:#000;fill-opacity:1;filter:url(#filter2770)" id="path7865" d="M 16,8 L 16,120 C 16,120 79.15625,120 79.15625,120 L 79.1875,120 C 79.187503,120 91.09375,110.09375 96.59375,104.59375 C 102.09375,99.09375 112,87.1875 112,87.1875 L 112,87.15625 L 112,8 L 16,8 z" transform="matrix(1.0416667,0,0,1.0267857,-2.6666667,-1.2142891)"/><path style="fill:#fff;fill-opacity:1" id="path34" d="M 16.000001,8 L 16,120 C 16,120 79.146418,120 79.146418,120 L 112,87.14642 L 112,8 L 16.000001,8 z"/><path style="fill:url(#radialGradient9437);fill-opacity:1" id="path59" d="M 18.000002,9.0000034 C 17.449002,9.0000034 17.000002,9.4488534 17.000002,9.9996684 L 17.000002,117.96352 C 17.000002,118.51533 17.449002,118.96318 18.000002,118.96318 L 77.171999,118.96318 C 77.434999,118.96318 79.934679,119.08131 80.12068,118.89438 L 110.707,88.094202 C 110.894,87.907264 111,85.40942 111,85.146508 L 111,9.9996684 C 111,9.4488534 110.552,9.0000034 110,9.0000034 L 18.000002,9.0000034 z"/><path id="path5540" d="M 41.879531,115.98249 C 41.879531,115.98249 66.18914,91.672876 66.18914,91.672876 C 66.18914,91.672876 56.836,94.586 46.586,94.586 C 46.586,104.836 41.879531,115.98249 41.879531,115.98249 z" clip-path="url(#clipPath7084)" transform="translate(40,0)" style="opacity:.4;fill:#000;fill-opacity:1;filter:url(#filter6697)"/><path style="fill:url(#linearGradient10213);fill-opacity:1" id="path14523" d="M 79.172,120 C 79.172,120 91.086,110.086 96.586,104.586 C 102.086,99.086 112,87.172 112,87.172 C 112,87.172 98.25,96 88,96 C 88,106.25 79.172,120 79.172,120 z"/><g id="g8542" transform="matrix(0.7796007,0,0,0.8187773,-28.43011,-15.233625)"><g style="opacity:.8;fill:url(#linearGradient8563);fill-opacity:1" id="g7973" transform="translate(76,24)"><radialGradient style="fill-opacity:1;fill:url(#linearGradient8536)" id="radialGradient8130" cx="60" cy="25" r="66" gradientUnits="userSpaceOnUse"><stop style="stop-color:#77de6c;fill-opacity:1;fill:url(#linearGradient8536)" id="stop7976" offset="0"/><stop style="stop-color:#0a8000;fill-opacity:1;fill:url(#linearGradient8536)" id="stop7978" offset="1"/></radialGradient><path id="path7980" d="M 76.306,44.035 C 81.057,49.225 83.67,55.96 83.67,63 C 83.67,70.041 81.057,76.775 76.308,81.965 L 80.077,85.414 C 85.69,79.281 88.779,71.32 88.779,63 C 88.779,54.68 85.69,46.719 80.076,40.585 L 76.306,44.035 z" style="fill:url(#linearGradient8565);fill-opacity:1"/></g><g style="opacity:.6;fill:url(#linearGradient8567);fill-opacity:1" id="g7982" transform="translate(76,24)"><radialGradient style="fill-opacity:1;fill:url(#linearGradient8538)" id="radialGradient8136" cx="60" cy="25" r="66" gradientUnits="userSpaceOnUse"><stop style="stop-color:#77de6c;fill-opacity:1;fill:url(#linearGradient8538)" id="stop8138" offset="0"/><stop style="stop-color:#0a8000;fill-opacity:1;fill:url(#linearGradient8538)" id="stop8140" offset="1"/></radialGradient><path id="path7989" d="M 83.849,37.137 C 90.323,44.215 93.89,53.399 93.89,63 C 93.89,72.602 90.324,81.785 83.847,88.861 L 87.618,92.312 C 94.958,84.291 99,73.881 99,63 C 99,52.119 94.958,41.709 87.619,33.688 L 83.849,37.137 z" style="fill:url(#linearGradient8569);fill-opacity:1"/></g></g><g id="g8571" transform="matrix(-0.7796007,0,0,0.8187773,156.43013,-15.233625)"><g id="g8573" transform="translate(76,24)" style="fill:url(#linearGradient8603);fill-opacity:1"><radialGradient id="radialGradient8575" cx="60" cy="25" r="66" gradientUnits="userSpaceOnUse" style="fill-opacity:1;fill:url(#linearGradient8534)"><stop id="stop8577" offset="0" style="stop-color:#77de6c;fill-opacity:1;fill:url(#linearGradient8534)"/><stop id="stop8579" offset="1" style="stop-color:#0a8000;fill-opacity:1;fill:url(#linearGradient8534)"/></radialGradient></g><g id="g8583" transform="translate(76,24)" style="opacity:.8;fill:url(#linearGradient8607);fill-opacity:1"><radialGradient id="radialGradient8585" cx="60" cy="25" r="66" gradientUnits="userSpaceOnUse" style="fill-opacity:1;fill:url(#linearGradient8536)"><stop id="stop8587" offset="0" style="stop-color:#77de6c;fill-opacity:1;fill:url(#linearGradient8536)"/><stop id="stop8589" offset="1" style="stop-color:#0a8000;fill-opacity:1;fill:url(#linearGradient8536)"/></radialGradient><path style="fill:url(#linearGradient8609);fill-opacity:1" id="path8591" d="M 76.306,44.035 C 81.057,49.225 83.67,55.96 83.67,63 C 83.67,70.041 81.057,76.775 76.308,81.965 L 80.077,85.414 C 85.69,79.281 88.779,71.32 88.779,63 C 88.779,54.68 85.69,46.719 80.076,40.585 L 76.306,44.035 z"/></g><g id="g8593" transform="translate(76,24)" style="opacity:.6;fill:url(#linearGradient8611);fill-opacity:1"><radialGradient id="radialGradient8595" cx="60" cy="25" r="66" gradientUnits="userSpaceOnUse" style="fill-opacity:1;fill:url(#linearGradient8538)"><stop id="stop8597" offset="0" style="stop-color:#77de6c;fill-opacity:1;fill:url(#linearGradient8538)"/><stop id="stop8599" offset="1" style="stop-color:#0a8000;fill-opacity:1;fill:url(#linearGradient8538)"/></radialGradient><path style="fill:url(#linearGradient8613);fill-opacity:1" id="path8601" d="M 83.849,37.137 C 90.323,44.215 93.89,53.399 93.89,63 C 93.89,72.602 90.324,81.785 83.847,88.861 L 87.618,92.312 C 94.958,84.291 99,73.881 99,63 C 99,52.119 94.958,41.709 87.619,33.688 L 83.849,37.137 z"/></g></g><g id="g6452"><path id="path2268" d="M 79.195961,111.20621 A 33.764351,9.0156116 0 1 1 11.667259,111.20621 A 33.764351,9.0156116 0 1 1 79.195961,111.20621 z" transform="matrix(0.6065569,0,0,-0.5060088,24.923143,151.70934)" style="opacity:.6;fill:url(#radialGradient10249);fill-opacity:1;fill-rule:evenodd;stroke:none;stroke-width:4;stroke-linecap:round;stroke-linejoin:round;stroke-miterlimit:4;stroke-dasharray:none;stroke-opacity:1"/><path id="polygon26" d="M 64,20.000001 L 68,20 L 68,84 L 64,80.616273 L 64,20.000001 z" style="fill:url(#linearGradient3914)"/><path style="opacity:.7;fill:url(#linearGradient10253);fill-opacity:1;filter:url(#filter5551)" id="path28" d="M 43.117,3 C 43.117,8.489 43.117,89.342 43.117,93.657 C 43.93,93.861 44.122,93.909 45.117,94.157 C 45.117,87.29 45.117,8.41 45.117,3 C 44.18,3 44.055,3 43.117,3 z" transform="matrix(1,0,0,-0.6586861,20.883,82.719523)"/><path style="opacity:.3;fill:url(#linearGradient3910);fill-opacity:1" id="path30" d="M 68,73.392341 C 67.143,72.181581 66.1255,72.280489 64.9565,71.342915 C 64.642499,71.091297 64.3225,70.860048 64,70.641381 L 64,81.126644 L 68,84.443026 L 68,73.392341 z"/><g id="g4907" transform="matrix(1.0439542,-0.1256516,0.123061,0.9926215,-13.588253,5.4747774)"><path style="fill:url(#linearGradient4914);fill-opacity:1" id="path45" d="M 37.422745,90.448873 C 39.094769,95.838112 47.227793,98.705202 55.587915,96.853383 C 63.948679,95.001015 69.368766,89.130492 67.697385,83.741249 C 66.02536,78.352554 57.892979,75.48492 49.532858,77.337284 C 41.172737,79.189648 35.750721,85.060176 37.422745,90.448873 z"/><path style="opacity:.9;fill:url(#linearGradient4916);fill-opacity:1;filter:url(#filter6116)" id="path49" d="M 43.576,95.141 C 41.685,87.924 31.358,84.38 20.508,87.226 C 9.659,90.072 2.397,98.231 4.288,105.45 C 5.392,109.668 9.388,112.616 14.675,113.783 C 11.444,112.132 9.023,109.457 8.13,106.047 C 6.226,98.778 11.933,90.983 20.878,88.635 C 29.823,86.288 38.619,90.279 40.523,97.547 C 41.417,100.957 40.618,104.478 38.612,107.503 C 42.646,103.891 44.681,99.358 43.576,95.141 z" transform="matrix(0.686105,0,0,0.5432152,36.321363,32.23032)"/><path id="path70" d="M 34.447549,87.550082 C 26.821174,91.714578 22.351297,97.864018 24.881162,100.7108 C 25.981924,101.94913 28.11253,102.24758 29.704981,102.27971 C 33.829576,102.36316 39.151934,100.85171 43.939512,98.237452 C 51.565138,94.073903 56.035552,87.922908 53.504726,85.076463 C 52.403963,83.838127 50.27336,83.539682 48.680904,83.507544 C 44.55556,83.425047 39.235126,84.935827 34.447549,87.550082 z" transform="matrix(0.7077814,0,0,0.6148065,20.645198,26.252134)" style="opacity:.8;fill:url(#radialGradient4918);fill-opacity:1;filter:url(#filter5558)"/><path id="path72" d="M 46.87479,109 C 39.70279,110.882 34.28679,109.601 34.94979,112.134 C 35.22279,113.179 36.25179,113.966 37.06579,114.442 C 39.30679,115.753 43.49679,116.681 48.53679,115.359 C 55.70779,113.477 59.46279,108.399 58.79979,105.867 C 58.52679,104.821 57.49779,104.035 56.68379,103.558 C 54.44279,102.248 51.91379,107.678 46.87479,109 z" transform="matrix(0.7114081,0.1240747,-0.1849201,0.7638422,40.01216,0.650991)" style="opacity:.6;fill:url(#radialGradient4920);fill-opacity:1;filter:url(#filter2844)"/><path style="opacity:.8;fill:url(#linearGradient4922);fill-opacity:1;filter:url(#filter3619)" id="path2338" d="M 87.84375,97.625 C 87.195821,106.01465 79.50551,114.10563 68.59375,116.96875 C 55.59875,120.37775 42.942749,115.1085 40.34375,105.1875 C 40.110816,104.29842 39.966685,103.39736 39.90625,102.5 C 39.798559,104.06171 39.937656,105.6375 40.34375,107.1875 C 42.942749,117.1085 55.59875,122.37775 68.59375,118.96875 C 80.371374,115.87844 88.376529,106.70048 87.84375,97.625 z" clip-path="none" transform="matrix(0.6181529,0,0,0.5432152,13.113494,32.23032)"/></g><path style="fill:url(#linearGradient3894);fill-opacity:1" id="path29" d="M 74.474445,31.506933 C 71.055118,27.422674 69.328611,22.448767 68.058151,20 L 68,36.38856 C 91.135055,46.126519 76.191526,72 76.191526,72 C 93.282123,54.396264 77.621635,35.265746 74.474445,31.506933 z"/><path style="fill:url(#radialGradient3885);filter:url(#filter6448)" id="path90" d="M 73.283992,31.834433 C 70.159765,28.004069 69.501081,25.426769 68.767471,24.347899 C 68.767471,36.307872 72.659648,36.165521 69.085889,35.47874 C 75.426749,38.7397 80.299771,43.233118 82.158445,48 C 80.073753,40.152595 75.917481,35.062926 73.283992,31.834433 z"/></g></g></svg>