<svg xmlns="http://www.w3.org/2000/svg" xmlns:cc="http://web.resource.org/cc/" xmlns:svg="http://www.w3.org/2000/svg" id="svg2273" width="693.057" height="646.529" version="1.0"><metadata id="metadata2278"/><g id="layer1" transform="translate(-34.900002,-192.36219)"><rect style="fill:#fff;fill-opacity:1;stroke:#000;stroke-width:20.487;stroke-miterlimit:4;stroke-dasharray:none;stroke-opacity:1" id="rect5078" width="682.57" height="636.041" x="40.144" y="197.606"/><path style="fill:#003c82;fill-opacity:1;fill-rule:evenodd;stroke:#003c82;stroke-width:29.27646446;stroke-linecap:butt;stroke-linejoin:miter;stroke-miterlimit:4;stroke-dasharray:none;stroke-opacity:1" id="path10907" d="M 359.99546,331.8875 L 403.57142,388.081 L 447.14738,331.8875 L 403.57142,331.8875 L 403.57142,219.50052 L 403.57142,331.8875 L 359.99546,331.8875 z"/><path style="fill:none;fill-rule:evenodd;stroke:#000;stroke-width:18.32107735;stroke-linecap:square;stroke-linejoin:miter;stroke-miterlimit:4;stroke-dasharray:none;stroke-opacity:1" id="path12847" d="M 41.089283,532.51007 C 70.813239,655.02814 75.271831,672.71118 94.592406,682.81576 C 113.91299,692.92034 122.18914,541.67094 152.49735,536.81199 C 193.373,530.2589 193.48349,793.92625 237.26739,792.70311 C 277.00803,791.55544 271.44994,516.09011 308.60489,495.88096 C 345.75982,475.67178 353.19082,607.03138 388.85956,594.40066 C 424.52831,581.76991 408.18012,428.93809 448.30746,466.83028 C 488.43482,504.72248 510.72778,793.96619 558.28609,781.33545 C 605.84445,768.70473 585.03767,588.0853 626.65119,575.45456 C 668.26473,562.82382 721.76787,691.65727 721.76787,691.65727"/><path style="fill:none;fill-rule:evenodd;stroke:#00aa7f;stroke-width:14;stroke-linecap:butt;stroke-linejoin:miter;stroke-miterlimit:4;stroke-dasharray:none;stroke-dashoffset:0;stroke-opacity:1" id="path13818" d="M 63.5,428.86218 L 703.5,428.86218 L 703.5,428.86218"/></g></svg>
