<svg xmlns="http://www.w3.org/2000/svg" xmlns:cc="http://web.resource.org/cc/" xmlns:svg="http://www.w3.org/2000/svg" xmlns:xlink="http://www.w3.org/1999/xlink" id="svg2606" width="128" height="128" version="1.0"><defs id="defs2608"><linearGradient id="linearGradient3342"><stop style="stop-color:#000;stop-opacity:1" id="stop3344" offset="0"/><stop style="stop-color:#000;stop-opacity:0" id="stop3347" offset="1"/></linearGradient><linearGradient id="linearGradient3326"><stop style="stop-color:#000;stop-opacity:1" id="stop3328" offset="0"/><stop style="stop-color:#000;stop-opacity:0" id="stop3330" offset="1"/></linearGradient><linearGradient id="linearGradient3825"><stop style="stop-color:#fff;stop-opacity:0" id="stop3827" offset="0"/><stop id="stop3833" offset=".5" style="stop-color:#fff;stop-opacity:.18705036"/><stop style="stop-color:#fff;stop-opacity:1" id="stop3829" offset="1"/></linearGradient><linearGradient id="linearGradient3751"><stop style="stop-color:#beba2c;stop-opacity:1" id="stop3753" offset="0"/><stop style="stop-color:#b6be2c;stop-opacity:0" id="stop3755" offset="1"/></linearGradient><linearGradient id="linearGradient3528"><stop style="stop-color:#eaf209;stop-opacity:1" id="stop3530" offset="0"/><stop style="stop-color:#c7c634;stop-opacity:0" id="stop3532" offset="1"/></linearGradient><linearGradient id="linearGradient3295"><stop style="stop-color:#fffe63;stop-opacity:1" id="stop3297" offset="0"/><stop style="stop-color:#fff;stop-opacity:0" id="stop3299" offset="1"/></linearGradient><linearGradient id="linearGradient3202"><stop style="stop-color:#fcff9c;stop-opacity:1" id="stop3204" offset="0"/><stop style="stop-color:#c1a965;stop-opacity:0" id="stop3206" offset="1"/></linearGradient><radialGradient id="XMLID_4_" cx="48" cy="-.215" r="55.148" gradientTransform="matrix(0.9792,0,0,0.9725,133.0002,20.8762)" gradientUnits="userSpaceOnUse"><stop style="stop-color:#cfd13d;stop-opacity:1" id="stop3082" offset="0"/><stop style="stop-color:#db8900;stop-opacity:1" id="stop3090" offset="1"/></radialGradient><linearGradient id="linearGradient3260"><stop id="stop3262" offset="0" style="stop-color:#fff;stop-opacity:1"/><stop id="stop3264" offset="1" style="stop-color:#fff;stop-opacity:0"/></linearGradient><linearGradient id="linearGradient3344"><stop id="stop3346" offset="0" style="stop-color:#fdff63;stop-opacity:1"/><stop id="stop3348" offset="1" style="stop-color:#fff;stop-opacity:0"/></linearGradient><linearGradient id="linearGradient3449"><stop id="stop3451" offset="0" style="stop-color:#000;stop-opacity:1"/><stop id="stop3453" offset="1" style="stop-color:#000;stop-opacity:0"/></linearGradient><linearGradient id="linearGradient3516" x1="147.094" x2="8.084" y1="33.406" y2="123.906" gradientUnits="userSpaceOnUse" xlink:href="#XMLID_4_"/><radialGradient id="radialGradient3524" cx="67.094" cy="116.906" r="56" fx="67.094" fy="116.906" gradientUnits="userSpaceOnUse" xlink:href="#XMLID_4_"/><radialGradient id="radialGradient3535" cx="99.726" cy="27.418" r="56" fx="64.69" fy="68.232" gradientTransform="matrix(0.693735,5.8671246e-2,-3.6242796e-2,0.4285387,33.939389,26.8809)" gradientUnits="userSpaceOnUse" xlink:href="#linearGradient3528"/><linearGradient id="linearGradient3548" x1="75.094" x2="75.094" y1="4.532" y2="80.172" gradientUnits="userSpaceOnUse" xlink:href="#linearGradient3295"/><linearGradient id="linearGradient3581" x1="75.094" x2="75.094" y1="4.532" y2="80.172" gradientTransform="translate(4.2161108e-3,1.9705695e-3)" gradientUnits="userSpaceOnUse" xlink:href="#linearGradient3260"/><linearGradient id="linearGradient3613" x1="208.594" x2="208.594" y1="130.406" y2="63.427" gradientTransform="translate(-137,0)" gradientUnits="userSpaceOnUse" xlink:href="#linearGradient3295"/><filter id="filter3639"><feGaussianBlur id="feGaussianBlur3641" stdDeviation="1.058"/></filter><radialGradient id="radialGradient3654" cx="-10.165" cy="66.906" r="59.995" fx="-10.165" fy="66.906" gradientTransform="matrix(0.4582893,-2.1035589e-8,4.5903973e-8,1.0000813,20.447953,-5.1974351e-3)" gradientUnits="userSpaceOnUse" xlink:href="#linearGradient3449"/><radialGradient id="radialGradient3658" cx="167.67" cy="80.405" r="59.995" fx="167.67" fy="80.405" gradientTransform="matrix(0.2676699,0.521376,-0.7037472,0.3612977,108.99386,-36.062981)" gradientUnits="userSpaceOnUse" xlink:href="#linearGradient3449"/><linearGradient id="linearGradient3676" x1="120.063" x2="125.304" y1="12.569" y2="14.444" gradientUnits="userSpaceOnUse" spreadMethod="reflect" xlink:href="#linearGradient3260"/><filter id="filter3738" width="1.302" height="1.275" x="-.151" y="-.137"><feGaussianBlur id="feGaussianBlur3740" stdDeviation=".393"/></filter><radialGradient id="radialGradient3744" cx="72.685" cy="48.229" r="59.995" fx="74.871" fy="26.863" gradientTransform="matrix(0.982366,1.671718e-2,-3.5801148e-3,0.2103843,-18.56344,30.477792)" gradientUnits="userSpaceOnUse" xlink:href="#linearGradient3449"/><radialGradient id="radialGradient3757" cx="66.015" cy="126.692" r="59.995" fx="66.015" fy="126.692" gradientTransform="matrix(0.675025,0,0,0.3583625,19.527377,41.004647)" gradientUnits="userSpaceOnUse" xlink:href="#linearGradient3751"/><radialGradient id="radialGradient3767" cx="64.089" cy="7.411" r="59.995" fx="64.089" fy="7.411" gradientTransform="matrix(0.3093869,0,0,0.4779247,44.260611,3.8644223)" gradientUnits="userSpaceOnUse" xlink:href="#linearGradient3260"/><linearGradient id="linearGradient3771" x1="120.063" x2="125.304" y1="12.569" y2="14.444" gradientUnits="userSpaceOnUse" spreadMethod="reflect" xlink:href="#linearGradient3344"/><filter id="filter3438"><feGaussianBlur id="feGaussianBlur3440" stdDeviation="1.334"/></filter><filter id="filter3630"><feGaussianBlur id="feGaussianBlur3632" stdDeviation=".899"/></filter><radialGradient id="radialGradient2361" cx="-112.172" cy="118.605" r="59.995" fx="-113.148" fy="59.708" gradientTransform="matrix(0.6484284,0.1017206,-3.1257154e-2,0.1992521,-4.56257,53.15916)" gradientUnits="userSpaceOnUse" xlink:href="#linearGradient3825"/><linearGradient id="linearGradient2363" x1="-151.439" x2="-152.268" y1="37.682" y2="57.25" gradientUnits="userSpaceOnUse" xlink:href="#linearGradient3326"/><linearGradient id="linearGradient2365" x1="-132.51" x2="-158.925" y1="39.803" y2="72.882" gradientUnits="userSpaceOnUse" xlink:href="#linearGradient3326"/><linearGradient id="linearGradient2367" x1="-83.013" x2="-158.925" y1="44.753" y2="72.882" gradientUnits="userSpaceOnUse" xlink:href="#linearGradient3326"/><linearGradient id="linearGradient3349" x1="-73" x2="-163" y1="105.625" y2="86.125" gradientUnits="userSpaceOnUse" xlink:href="#linearGradient3342"/><filter id="filter3363" width="1.175" height="1.204" x="-.088" y="-.102"><feGaussianBlur id="feGaussianBlur3365" stdDeviation="3.053"/></filter><linearGradient id="linearGradient3372" x1="-83.594" x2="-138.004" y1="137.133" y2="92.604" gradientTransform="translate(-40.5,-1.5)" gradientUnits="userSpaceOnUse" xlink:href="#linearGradient3342"/><linearGradient id="linearGradient3376" x1="-61.803" x2="-136.511" y1="99.98" y2="112.704" gradientTransform="translate(-40.5,-1.5)" gradientUnits="userSpaceOnUse" xlink:href="#linearGradient3342"/><radialGradient id="radialGradient3388" cx="-112.172" cy="118.605" r="59.995" fx="-113.148" fy="59.708" gradientTransform="matrix(0.6484284,0.1017206,-3.1257154e-2,0.1992521,-4.56257,53.15916)" gradientUnits="userSpaceOnUse" xlink:href="#linearGradient3825"/><linearGradient id="linearGradient3390" x1="-151.439" x2="-152.268" y1="37.682" y2="57.25" gradientUnits="userSpaceOnUse" xlink:href="#linearGradient3326"/><linearGradient id="linearGradient3392" x1="-132.51" x2="-158.925" y1="39.803" y2="72.882" gradientUnits="userSpaceOnUse" xlink:href="#linearGradient3326"/><linearGradient id="linearGradient3394" x1="-83.013" x2="-158.925" y1="44.753" y2="72.882" gradientUnits="userSpaceOnUse" xlink:href="#linearGradient3326"/><linearGradient id="linearGradient3396" x1="-73" x2="-163" y1="105.625" y2="86.125" gradientUnits="userSpaceOnUse" xlink:href="#linearGradient3342"/><linearGradient id="linearGradient3398" x1="-83.594" x2="-138.004" y1="137.133" y2="92.604" gradientTransform="translate(-40.5,-1.5)" gradientUnits="userSpaceOnUse" xlink:href="#linearGradient3342"/><linearGradient id="linearGradient3400" x1="-61.803" x2="-136.511" y1="99.98" y2="112.704" gradientTransform="translate(-40.5,-1.5)" gradientUnits="userSpaceOnUse" xlink:href="#linearGradient3342"/><radialGradient id="radialGradient3422" cx="-112.172" cy="118.605" r="59.995" fx="-113.148" fy="59.708" gradientTransform="matrix(0.6484284,0.1017206,-3.1257154e-2,0.1992521,-4.56257,53.15916)" gradientUnits="userSpaceOnUse" xlink:href="#linearGradient3825"/><linearGradient id="linearGradient3424" x1="-151.439" x2="-152.268" y1="37.682" y2="57.25" gradientUnits="userSpaceOnUse" xlink:href="#linearGradient3326"/><linearGradient id="linearGradient3426" x1="-132.51" x2="-158.925" y1="39.803" y2="72.882" gradientUnits="userSpaceOnUse" xlink:href="#linearGradient3326"/><linearGradient id="linearGradient3428" x1="-83.013" x2="-158.925" y1="44.753" y2="72.882" gradientUnits="userSpaceOnUse" xlink:href="#linearGradient3326"/><linearGradient id="linearGradient3430" x1="-73" x2="-163" y1="105.625" y2="86.125" gradientUnits="userSpaceOnUse" xlink:href="#linearGradient3342"/><linearGradient id="linearGradient3432" x1="-83.594" x2="-138.004" y1="137.133" y2="92.604" gradientTransform="translate(-40.5,-1.5)" gradientUnits="userSpaceOnUse" xlink:href="#linearGradient3342"/><linearGradient id="linearGradient3434" x1="-61.803" x2="-136.511" y1="99.98" y2="112.704" gradientTransform="translate(-40.5,-1.5)" gradientUnits="userSpaceOnUse" xlink:href="#linearGradient3342"/><mask id="mask3402" maskUnits="userSpaceOnUse"><g id="g3404" transform="translate(167.50257,-3.755156e-3)"><g id="g3406" transform="translate(80.51637,30.885255)"><path style="opacity:1;fill:url(#radialGradient3422);fill-opacity:1;stroke:none;stroke-width:2;stroke-linecap:round;stroke-linejoin:round;stroke-miterlimit:4;stroke-dashoffset:1.08779998;stroke-opacity:1" id="path3408" d="M -184.42232,-32.47243 C -217.54751,-32.47243 -248.42232,-0.097625 -248.42232,33.02757 C -248.42232,66.15276 -217.04751,97.02757 -183.92232,97.02757 C -153.6332,97.02757 -128.58571,70.81131 -124.51607,41.68382 L -159.54732,36.65257 C -161.172,48.6137 -171.47739,57.62132 -183.92232,57.62132 C -197.49395,57.62132 -206.01607,46.0992 -206.01607,32.52757 C -206.01607,18.955936 -199.99395,12.43382 -186.42232,12.43382 C -179.6365,12.433819 -176.50103,10.198864 -172.04732,14.65257 L -176.8745,25.979749 C -178.93037,28.035619 -179.11822,29.285529 -178.55411,30.595278 C -178.04554,31.776057 -177.03338,33.12132 -174.34438,33.12132 L -130.39107,33.12132 C -126.54518,33.12132 -123.93208,30.466941 -123.93208,26.871189 L -124.00095,-17.206829 C -124.00095,-19.687584 -124.90346,-21.050058 -126.18242,-21.556444 C -127.49674,-22.076829 -129.21563,-21.679122 -131.28951,-19.605244 L -141.48482,-19.40993 C -152.34417,-30.269281 -167.85972,-32.47243 -184.42232,-32.47243 z"/><path style="fill:url(#linearGradient3424);fill-opacity:1;fill-rule:evenodd;stroke:none;stroke-width:1px;stroke-linecap:butt;stroke-linejoin:miter;stroke-opacity:1;filter:url(#filter3438)" id="path3410" d="M -161.5,34.5 C -162,37 -180,54 -180,54 L -132.5,80 L -112,38.5 L -161.5,34.5 z"/><path id="path3412" d="M -161.5,34.5 C -162,37 -181.27817,54.389087 -181.27817,54.389087 L -151.62742,97.591883 L -112,38.5 L -161.5,34.5 z" style="fill:url(#linearGradient3426);fill-opacity:1;fill-rule:evenodd;stroke:none;stroke-width:1px;stroke-linecap:butt;stroke-linejoin:miter;stroke-opacity:1;filter:url(#filter3438)"/><path style="fill:url(#linearGradient3428);fill-opacity:1;fill-rule:evenodd;stroke:none;stroke-width:1px;stroke-linecap:butt;stroke-linejoin:miter;stroke-opacity:1;filter:url(#filter3438)" id="path3414" d="M -161.5,34.5 C -162,37 -181.27817,54.389087 -181.27817,54.389087 L -151.62742,97.591883 L -112,38.5 L -161.5,34.5 z"/></g><rect id="rect3416" width="83.5" height="71.75" x="-119" y="69.75" style="opacity:1;fill:url(#linearGradient3430);fill-opacity:1;stroke:none;stroke-width:1;stroke-linecap:round;stroke-linejoin:round;stroke-miterlimit:4;stroke-dasharray:none;stroke-dashoffset:1.08779998;stroke-opacity:1;filter:url(#filter3363)"/><path id="path3418" d="M -159.5,68.25 L -39.138259,55.983708 L -93.453327,162.55286 L -197.79465,128.96507 L -159.5,68.25 z" transform="matrix(0.6393762,0.7688941,-0.7688941,0.6393762,37.597642,128.08723)" style="fill:url(#linearGradient3432);fill-opacity:1;stroke:none;stroke-width:1;stroke-linecap:round;stroke-linejoin:round;stroke-miterlimit:4;stroke-dashoffset:1.08779998;stroke-opacity:1;filter:url(#filter3363)"/><path style="fill:url(#linearGradient3434);fill-opacity:1;stroke:none;stroke-width:1;stroke-linecap:round;stroke-linejoin:round;stroke-miterlimit:4;stroke-dashoffset:1.08779998;stroke-opacity:1;filter:url(#filter3363)" id="path3420" d="M -159.5,68.25 L -39.138259,55.983708 L -93.453327,162.55286 L -197.79465,128.96507 L -159.5,68.25 z" transform="matrix(0.6393762,0.7688941,-0.7688941,0.6393762,37.597642,128.08723)"/></g></mask><linearGradient id="linearGradient3565" x1="-267.477" x2="-33.477" y1="18.103" y2="18.103" gradientUnits="userSpaceOnUse" xlink:href="#linearGradient3751"/><linearGradient id="linearGradient3567" x1="208.594" x2="208.594" y1="130.406" y2="63.427" gradientTransform="translate(-137,0)" gradientUnits="userSpaceOnUse" xlink:href="#linearGradient3295"/></defs><metadata id="metadata2611"/><g id="layer1"><g id="g3835" mask="url(#mask3402)" transform="matrix(-1,0,0,1,128.17774,0)"><path id="rect3204" d="M 64.09375,3.90625 C 30.968558,3.9062499 4.0937499,30.781055 4.09375,63.90625 C 4.0937501,97.031442 30.96856,123.90625 64.09375,123.90625 C 94.382866,123.90625 119.43036,101.68999 123.5,72.5625 L 88.46875,67.53125 C 86.844066,79.492379 76.538676,88.5 64.09375,88.5 C 50.522122,88.499999 39.5,77.477881 39.5,63.90625 C 39.500001,50.334616 50.522119,39.3125 64.09375,39.3125 C 70.879568,39.312499 77.015044,42.077544 81.46875,46.53125 L 71.141571,56.858429 C 69.085701,58.914299 68.897846,60.164209 69.461963,61.473958 C 69.970531,62.654737 70.982695,64 73.671688,64 L 117.625,64 C 121.47089,64 124.08399,61.345621 124.08399,57.749869 L 124.01512,13.671851 C 124.01512,11.191096 123.11261,9.8286218 121.83365,9.3222363 C 120.51933,8.8018514 118.80044,9.1995576 116.72656,11.273436 L 106.53125,21.46875 C 95.671902,10.609399 80.656349,3.90625 64.09375,3.90625 z" style="opacity:1;fill:url(#linearGradient3516);fill-opacity:1;stroke:none;stroke-width:2;stroke-linecap:round;stroke-linejoin:round;stroke-miterlimit:4;stroke-dashoffset:1.08779998;stroke-opacity:1"/><path style="opacity:.79775277;fill:url(#radialGradient3757);fill-opacity:1;stroke:none;stroke-width:2;stroke-linecap:round;stroke-linejoin:round;stroke-miterlimit:4;stroke-dashoffset:1.08779998;stroke-opacity:1" id="path3749" d="M 64.09375,3.90625 C 30.968558,3.9062499 4.0937499,30.781055 4.09375,63.90625 C 4.0937501,97.031442 30.96856,123.90625 64.09375,123.90625 C 94.382866,123.90625 119.43036,101.68999 123.5,72.5625 L 88.46875,67.53125 C 86.844066,79.492379 76.538676,88.5 64.09375,88.5 C 50.522122,88.499999 39.5,77.477881 39.5,63.90625 C 39.500001,50.334616 50.522119,39.3125 64.09375,39.3125 C 70.879568,39.312499 77.015044,42.077544 81.46875,46.53125 L 71.141571,56.858429 C 69.085701,58.914299 68.897846,60.164209 69.461963,61.473958 C 69.970531,62.654737 70.982695,64 73.671688,64 L 117.625,64 C 121.47089,64 124.08399,61.345621 124.08399,57.749869 L 124.01512,13.671851 C 124.01512,11.191096 123.11261,9.8286218 121.83365,9.3222363 C 120.51933,8.8018514 118.80044,9.1995576 116.72656,11.273436 L 106.53125,21.46875 C 95.671902,10.609399 80.656349,3.90625 64.09375,3.90625 z"/><path id="path3656" d="M 64.09375,3.90625 C 30.968558,3.9062499 4.0937499,30.781055 4.09375,63.90625 C 4.0937501,97.031442 30.96856,123.90625 64.09375,123.90625 C 94.382866,123.90625 119.43036,101.68999 123.5,72.5625 L 88.46875,67.53125 C 86.844066,79.492379 76.538676,88.5 64.09375,88.5 C 50.522122,88.499999 39.5,77.477881 39.5,63.90625 C 39.500001,50.334616 50.522119,39.3125 64.09375,39.3125 C 70.879568,39.312499 77.015044,42.077544 81.46875,46.53125 L 71.141571,56.858429 C 69.085701,58.914299 68.897846,60.164209 69.461963,61.473958 C 69.970531,62.654737 70.982695,64 73.671688,64 L 117.625,64 C 121.47089,64 124.08399,61.345621 124.08399,57.749869 L 124.01512,13.671851 C 124.01512,11.191096 123.11261,9.8286218 121.83365,9.3222363 C 120.51933,8.8018514 118.80044,9.1995576 116.72656,11.273436 L 106.53125,21.46875 C 95.671902,10.609399 80.656349,3.90625 64.09375,3.90625 z" style="opacity:.68913861;fill:url(#radialGradient3658);fill-opacity:1;stroke:none;stroke-width:2;stroke-linecap:round;stroke-linejoin:round;stroke-miterlimit:4;stroke-dashoffset:1.08779998;stroke-opacity:1"/><path style="opacity:1;fill:url(#radialGradient3654);fill-opacity:1;stroke:none;stroke-width:2;stroke-linecap:round;stroke-linejoin:round;stroke-miterlimit:4;stroke-dashoffset:1.08779998;stroke-opacity:1" id="path3643" d="M 64.09375,3.90625 C 30.968558,3.9062499 4.0937499,30.781055 4.09375,63.90625 C 4.0937501,97.031442 30.96856,123.90625 64.09375,123.90625 C 94.382866,123.90625 119.43036,101.68999 123.5,72.5625 L 88.46875,67.53125 C 86.844066,79.492379 76.538676,88.5 64.09375,88.5 C 50.522122,88.499999 39.5,77.477881 39.5,63.90625 C 39.500001,50.334616 50.522119,39.3125 64.09375,39.3125 C 70.879568,39.312499 77.015044,42.077544 81.46875,46.53125 L 71.141571,56.858429 C 69.085701,58.914299 68.897846,60.164209 69.461963,61.473958 C 69.970531,62.654737 70.982695,64 73.671688,64 L 117.625,64 C 121.47089,64 124.08399,61.345621 124.08399,57.749869 L 124.01512,13.671851 C 124.01512,11.191096 123.11261,9.8286218 121.83365,9.3222363 C 120.51933,8.8018514 118.80044,9.1995576 116.72656,11.273436 L 106.53125,21.46875 C 95.671902,10.609399 80.656349,3.90625 64.09375,3.90625 z"/><path id="path3742" d="M 64.09375,3.90625 C 30.968558,3.9062499 4.0937499,30.781055 4.09375,63.90625 C 4.0937501,97.031442 30.96856,123.90625 64.09375,123.90625 C 94.382866,123.90625 119.43036,101.68999 123.5,72.5625 L 88.46875,67.53125 C 86.844066,79.492379 76.538676,88.5 64.09375,88.5 C 50.522122,88.499999 39.5,77.477881 39.5,63.90625 C 39.500001,50.334616 50.522119,39.3125 64.09375,39.3125 C 70.879568,39.312499 77.015044,42.077544 81.46875,46.53125 L 71.141571,56.858429 C 69.085701,58.914299 68.897846,60.164209 69.461963,61.473958 C 69.970531,62.654737 70.982695,64 73.671688,64 L 117.625,64 C 121.47089,64 124.08399,61.345621 124.08399,57.749869 L 124.01512,13.671851 C 124.01512,11.191096 123.11261,9.8286218 121.83365,9.3222363 C 120.51933,8.8018514 118.80044,9.1995576 116.72656,11.273436 L 106.53125,21.46875 C 95.671902,10.609399 80.656349,3.90625 64.09375,3.90625 z" style="opacity:.79775277;fill:url(#radialGradient3744);fill-opacity:1;stroke:none;stroke-width:2;stroke-linecap:round;stroke-linejoin:round;stroke-miterlimit:4;stroke-dashoffset:1.08779998;stroke-opacity:1"/><path style="opacity:.74531836;fill:url(#radialGradient3767);fill-opacity:1;stroke:none;stroke-width:2;stroke-linecap:round;stroke-linejoin:round;stroke-miterlimit:4;stroke-dashoffset:1.08779998;stroke-opacity:1;filter:url(#filter3630)" id="path3759" d="M 64.09375,4.20625 C 30.968558,4.2062499 4.0937499,30.781055 4.09375,63.90625 C 4.0937501,97.031442 30.96856,123.90625 64.09375,123.90625 C 94.382866,123.90625 119.43036,101.68999 123.5,72.5625 L 88.46875,67.53125 C 86.844066,79.492379 76.538676,88.5 64.09375,88.5 C 50.522122,88.499999 39.5,77.477881 39.5,63.90625 C 39.500001,50.334616 50.522119,39.3125 64.09375,39.3125 C 70.879568,39.312499 77.015044,42.077544 81.46875,46.53125 L 71.141571,56.858429 C 69.085701,58.914299 68.897846,60.164209 69.461963,61.473958 C 69.970531,62.654737 70.982695,64 73.671688,64 L 117.625,64 C 121.47089,64 124.08399,61.345621 124.08399,57.749869 L 124.01512,13.671851 C 124.01512,11.191096 123.11261,9.8286218 121.83365,9.3222363 C 120.51933,8.8018514 118.80044,9.1995576 116.72656,11.273436 L 106.53125,21.46875 C 95.671902,10.609399 80.656349,4.20625 64.09375,4.20625 z"/><path id="path3660" d="M 117.6875,10.75 L 118.625,15.125 L 119.875,16 L 123.875,13.375 C 124.12188,11.651249 123.52383,10.027571 121.9375,9.3749999 C 120.35116,8.7224285 118.77622,9.5017032 117.6875,10.75 z" style="opacity:.82022472;fill:url(#linearGradient3676);fill-opacity:1;fill-rule:evenodd;stroke:none;stroke-width:1px;stroke-linecap:butt;stroke-linejoin:miter;stroke-opacity:1;filter:url(#filter3738)"/><path style="opacity:.82022472;fill:url(#linearGradient3771);fill-opacity:1;fill-rule:evenodd;stroke:none;stroke-width:1px;stroke-linecap:butt;stroke-linejoin:miter;stroke-opacity:1;filter:url(#filter3738)" id="path3769" d="M 117.6875,10.75 L 119.875,13.875 L 120.375,13.75 L 123.875,13.375 C 124.12188,11.651249 123.52383,10.027571 121.9375,9.3749999 C 120.35116,8.7224285 118.77622,9.5017032 117.6875,10.75 z" transform="matrix(0,1,1,0,60.363582,-60.363586)"/><path id="path3494" d="M 64.09375,7.90625 C 33.132052,7.9062499 8.0937499,32.944549 8.09375,63.90625 C 8.0937501,94.867948 33.132054,119.90625 64.09375,119.90625 C 91.026646,119.90625 113.21548,101.0995 118.625,75.90625 L 91.5,72.03125 C 88.061436,83.928551 77.059621,92.5 64.09375,92.5 C 48.356404,92.499999 35.5,79.643599 35.5,63.90625 C 35.500001,48.168899 48.356402,35.3125 64.09375,35.3125 C 71.966166,35.312499 79.145304,38.520304 84.3125,43.6875 C 85.071964,44.438909 85.499997,45.462886 85.5,46.53125 C 85.5,47.599614 85.071964,48.623591 84.3125,49.375 L 73.6875,60 L 117.625,60 C 119.63039,60 120.09375,59.407836 120.09375,57.75 L 120,13.65625 L 109.375,24.3125 C 108.62359,25.071964 107.59961,25.5 106.53125,25.5 C 105.46289,25.5 104.43891,25.071964 103.6875,24.3125 C 93.549835,14.174833 79.577106,7.90625 64.09375,7.90625 z" style="opacity:1;fill:url(#radialGradient3524);fill-opacity:1;stroke:none;stroke-width:4;stroke-linecap:round;stroke-linejoin:round;stroke-miterlimit:4;stroke-dasharray:none;stroke-dashoffset:1.08779998;stroke-opacity:1"/><path style="opacity:1;fill:url(#radialGradient3535);fill-opacity:1;stroke:none;stroke-width:4;stroke-linecap:round;stroke-linejoin:round;stroke-miterlimit:4;stroke-dasharray:none;stroke-dashoffset:1.08779998;stroke-opacity:1" id="path3526" d="M 64.09375,7.90625 C 33.132052,7.9062499 8.0937499,32.944549 8.09375,63.90625 C 8.0937501,94.867948 33.132054,119.90625 64.09375,119.90625 C 91.026646,119.90625 113.21548,101.0995 118.625,75.90625 L 91.5,72.03125 C 88.061436,83.928551 77.059621,92.5 64.09375,92.5 C 48.356404,92.499999 35.5,79.643599 35.5,63.90625 C 35.500001,48.168899 48.356402,35.3125 64.09375,35.3125 C 71.966166,35.312499 79.145304,38.520304 84.3125,43.6875 C 85.071964,44.438909 85.499997,45.462886 85.5,46.53125 C 85.5,47.599614 85.071964,48.623591 84.3125,49.375 L 73.6875,60 L 117.625,60 C 119.63039,60 120.09375,59.407836 120.09375,57.75 L 120,13.65625 L 109.375,24.3125 C 108.62359,25.071964 107.59961,25.5 106.53125,25.5 C 105.46289,25.5 104.43891,25.071964 103.6875,24.3125 C 93.549835,14.174833 79.577106,7.90625 64.09375,7.90625 z"/><path id="path3537" d="M 64.09375,7.90625 C 33.132052,7.9062499 8.0937499,32.944549 8.09375,63.90625 C 8.09375,64.474122 8.1082724,65.029981 8.125,65.59375 C 14.11447,66.271402 20.266218,66.74388 26.53125,67 C 26.260548,56.540958 30.202859,46.025084 38.34375,38.21875 C 53.683067,23.509813 78.072313,24.004431 92.78125,39.34375 C 95.545099,42.226046 97.537852,45.032117 99.34375,48.59375 L 78.84375,59 L 98,59 C 105.9282,56.973373 113.18621,55.563033 120.09375,52.8125 L 120,13.65625 L 109.375,24.3125 C 108.62359,25.071964 107.59961,25.5 106.53125,25.5 C 105.46289,25.5 104.43891,25.071964 103.6875,24.3125 C 93.549835,14.174833 79.577106,7.90625 64.09375,7.90625 z" style="opacity:1;fill:url(#linearGradient3548);fill-opacity:1;stroke:none;stroke-width:8;stroke-linecap:round;stroke-linejoin:round;stroke-miterlimit:4;stroke-dasharray:none;stroke-dashoffset:1.08779998;stroke-opacity:1"/><path id="path3553" d="M 64.099866,7.9087646 C 33.138176,7.9087644 8.0998661,32.947063 8.0998661,63.908764 C 8.0998761,64.087476 8.0973761,64.263059 8.0998661,64.440014 C 8.3531061,33.696509 33.295846,8.9087645 64.099866,8.9087646 C 79.583236,8.9087645 93.555946,15.177347 103.69361,25.315014 C 104.44503,26.074479 105.469,26.502514 106.53736,26.502514 C 107.60573,26.502515 108.6297,26.074478 109.38111,25.315014 L 119.50611,15.158764 L 119.99986,52.708764 C 113.09232,55.459294 105.43431,56.569624 97.506116,58.596264 L 78.849866,59.002514 L 98.006116,59.002514 C 105.93431,56.975884 113.19232,55.565544 120.09986,52.815014 L 120.00611,14.658764 L 120.00611,13.658764 L 119.50611,14.158764 L 109.38111,24.315014 C 108.62971,25.074479 107.60572,25.502514 106.53736,25.502514 C 105.46901,25.502515 104.44502,25.074478 103.69361,24.315014 C 103.68314,24.304548 103.67283,24.294222 103.66236,24.283764 C 103.60999,24.231473 103.55869,24.179598 103.50611,24.127514 C 102.93231,23.559643 102.35524,23.012364 101.75611,22.471264 C 101.67459,22.397145 101.58807,22.326157 101.50611,22.252514 C 91.590066,13.342335 78.496526,7.9087646 64.099866,7.9087646 z M 63.443616,27.127514 C 54.205446,27.378034 45.040176,30.920194 37.849866,37.815014 C 30.217786,45.133448 26.722316,55.187931 26.537366,65.033764 C 26.777246,55.231884 30.717786,45.539698 38.349866,38.221264 C 51.665996,25.452364 71.803196,24.123207 86.506116,34.033764 C 79.627056,29.22869 71.518656,26.908534 63.443616,27.127514 z" style="opacity:1;fill:url(#linearGradient3581);fill-opacity:1;stroke:none;stroke-width:8;stroke-linecap:round;stroke-linejoin:round;stroke-miterlimit:4;stroke-dasharray:none;stroke-dashoffset:1.08779998;stroke-opacity:1"/><path id="path3603" d="M 63.59375,7.90625 C 32.63205,7.9062499 7.59375,32.944549 7.59375,63.90625 C 7.59375,94.867948 32.63205,119.90625 63.59375,119.90625 C 90.52665,119.90625 112.71548,101.0995 118.125,75.90625 L 91,72.03125 C 87.56144,83.928551 76.55962,92.5 63.59375,92.5 C 47.8564,92.499999 35,79.643599 35,63.90625 C 35,48.168899 47.8564,35.3125 63.59375,35.3125 C 71.46617,35.312499 78.6453,38.520304 83.8125,43.6875 C 84.57196,44.438909 85,45.462886 85,46.53125 C 85,47.599614 84.57196,48.623591 83.8125,49.375 L 73.1875,60 L 117.125,60 C 119.13039,60 119.59375,59.407836 119.59375,57.75 L 119.5,13.65625 L 108.875,24.3125 C 108.12359,25.071964 107.09961,25.5 106.03125,25.5 C 104.96289,25.5 103.93891,25.071964 103.1875,24.3125 C 93.04984,14.174833 79.07711,7.90625 63.59375,7.90625 z" style="opacity:1;fill:none;fill-opacity:1;stroke:url(#linearGradient3567);stroke-width:1;stroke-linecap:round;stroke-linejoin:round;stroke-miterlimit:4;stroke-dasharray:none;stroke-dashoffset:1.08779998;stroke-opacity:1;filter:url(#filter3639)"/></g></g></svg>
