<svg xmlns="http://www.w3.org/2000/svg" xmlns:cc="http://web.resource.org/cc/" xmlns:svg="http://www.w3.org/2000/svg" xmlns:xlink="http://www.w3.org/1999/xlink" id="svg2382" width="145" height="145" version="1.0"><defs id="defs2384"><linearGradient id="linearGradient9691"><stop style="stop-color:#323232;stop-opacity:1" id="stop9693" offset="0"/><stop style="stop-color:#000;stop-opacity:1" id="stop9695" offset="1"/></linearGradient><linearGradient id="linearGradient2424" x1="66.398" x2="66.604" y1="5.961" y2="129.037" gradientTransform="matrix(0.988046,0,0,0.9880485,606.48161,51.057849)" gradientUnits="userSpaceOnUse" xlink:href="#linearGradient9691"/><linearGradient id="linearGradient9739"><stop style="stop-color:#494949;stop-opacity:1" id="stop9741" offset="0"/><stop style="stop-color:#000;stop-opacity:1" id="stop9743" offset="1"/></linearGradient><linearGradient id="linearGradient9745" x1="56.941" x2="57.353" y1="5.346" y2="125.739" gradientTransform="matrix(1.0075326,0,0,1,598.85574,45.557498)" gradientUnits="userSpaceOnUse" xlink:href="#linearGradient9739"/></defs><metadata id="metadata2387"/><g id="layer1" transform="translate(-597.87867,-39.605735)"><path style="fill:url(#linearGradient2424);fill-opacity:1;stroke:#000;stroke-width:2;stroke-miterlimit:4;stroke-dasharray:none;stroke-opacity:1" id="path2375" d="M 669.84296,51.143189 C 663.34307,51.226229 655.81027,55.908729 653.90546,65.299439 C 638.87242,64.839719 632.15504,85.471269 630.90546,99.518189 C 629.3179,117.36468 641.91583,129.7871 654.34296,134.61194 C 654.16189,136.63746 653.90719,138.51568 653.09296,139.42444 C 647.91135,145.20763 643.82363,145.57154 634.65546,148.17444 C 624.42704,151.07835 616.31095,153.91637 610.43671,159.08069 C 605.98906,162.99084 602.89813,167.39418 602.09296,172.83069 L 737.74921,172.83069 C 736.94404,167.39418 733.85312,162.99083 729.40546,159.08069 C 723.59646,153.97373 715.48089,150.97202 705.18671,148.04944 C 695.95064,145.42728 688.90517,142.44923 687.31171,138.20569 C 686.13506,135.07212 685.66636,129.29894 685.59296,126.61194 C 699.74633,124.58359 708.59296,116.12203 708.59296,101.39319 C 708.59296,77.435779 689.34264,50.894069 669.84296,51.143189 z"/></g></svg>
